<svg xmlns="http://www.w3.org/2000/svg" xmlns:xlink="http://www.w3.org/1999/xlink" width="430" height="932" viewBox="0 0 430 932">
  <defs>
    <clipPath id="clip-path">
      <rect id="Rectangle_51" data-name="Rectangle 51" width="524.083" height="436.5" fill="none"/>
    </clipPath>
    <clipPath id="clip-path-3">
      <rect id="Rectangle_35" data-name="Rectangle 35" width="197.336" height="86.451" fill="none"/>
    </clipPath>
    <clipPath id="clip-path-4">
      <rect id="Rectangle_36" data-name="Rectangle 36" width="189.049" height="37.683" fill="none"/>
    </clipPath>
    <clipPath id="clip-path-5">
      <rect id="Rectangle_37" data-name="Rectangle 37" width="51.299" height="42.066" fill="none"/>
    </clipPath>
    <clipPath id="clip-path-6">
      <rect id="Rectangle_38" data-name="Rectangle 38" width="136.96" height="86.736" fill="none"/>
    </clipPath>
    <clipPath id="clip-path-7">
      <rect id="Rectangle_39" data-name="Rectangle 39" width="64.409" height="81.061" fill="none"/>
    </clipPath>
    <clipPath id="clip-path-8">
      <rect id="Rectangle_40" data-name="Rectangle 40" width="30.555" height="31.963" fill="none"/>
    </clipPath>
    <clipPath id="clip-path-9">
      <rect id="Rectangle_41" data-name="Rectangle 41" width="38.051" height="96.613" fill="none"/>
    </clipPath>
    <clipPath id="clip-path-10">
      <rect id="Rectangle_42" data-name="Rectangle 42" width="0.352" height="0.923" fill="none"/>
    </clipPath>
    <clipPath id="clip-path-11">
      <rect id="Rectangle_43" data-name="Rectangle 43" width="45.925" height="79.212" fill="none"/>
    </clipPath>
    <clipPath id="clip-path-12">
      <rect id="Rectangle_44" data-name="Rectangle 44" width="0.256" height="0.012" fill="none"/>
    </clipPath>
    <clipPath id="clip-path-13">
      <rect id="Rectangle_45" data-name="Rectangle 45" width="112.47" height="5.863" fill="none"/>
    </clipPath>
    <clipPath id="clip-path-14">
      <rect id="Rectangle_46" data-name="Rectangle 46" width="143.54" height="31.464" fill="none"/>
    </clipPath>
    <clipPath id="clip-path-15">
      <rect id="Rectangle_47" data-name="Rectangle 47" width="12.729" height="57.324" fill="none"/>
    </clipPath>
    <clipPath id="clip-path-16">
      <rect id="Rectangle_48" data-name="Rectangle 48" width="20.445" height="63.559" fill="none"/>
    </clipPath>
    <clipPath id="clip-path-17">
      <rect id="Rectangle_49" data-name="Rectangle 49" width="33.25" height="45.733" fill="none"/>
    </clipPath>
    <clipPath id="clip-Welcome_Note">
      <rect width="430" height="932"/>
    </clipPath>
  </defs>
  <g id="Welcome_Note" data-name="Welcome Note" clip-path="url(#clip-Welcome_Note)">
    <rect width="430" height="932" fill="#fff"/>
    <rect id="Rectangle_16" data-name="Rectangle 16" width="430" height="932" fill="#1168ed"/>
    <path id="Path_155" data-name="Path 155" d="M-70.74,305.5" transform="translate(489)" fill="none" stroke="#707070" stroke-width="1"/>
    <g id="Group_116" data-name="Group 116" transform="translate(-74.866 720.343) rotate(-8)">
      <g id="Group_115" data-name="Group 115" clip-path="url(#clip-path)">
        <g id="Group_114" data-name="Group 114">
          <g id="Group_113" data-name="Group 113" clip-path="url(#clip-path)">
            <path id="Path_175" data-name="Path 175" d="M161.024,232.564c-2.116,2.149,16.217,14.029,23.9,23.954s35.423,61.253,50.36,57.489,3.841-43.459,3.841-43.459,6.647-43.459,3.964-43.117-75.662-1.369-82.064,5.133" transform="translate(79.862 112.914)" fill="#ff725e"/>
            <path id="Path_176" data-name="Path 176" d="M161.024,232.564c-2.116,2.149,16.217,14.029,23.9,23.954s35.423,61.253,50.36,57.489,3.841-43.459,3.841-43.459,6.647-43.459,3.964-43.117-75.662-1.369-82.064,5.133" transform="translate(79.862 112.914)" fill="#0056d3"/>
            <path id="Path_177" data-name="Path 177" d="M36.185,226.917s1.089,37.565,45.731,45.731l39.2,3.812s1.088,53.9,64.786,54.985l49.541-5.987s76.217-2.158,125.217,2.177c13.965,1.235,34.325,3.225,54.467-3.852s88.714-71.822,19.574-152.4c0,0,5.987-36.477-31.033-45.188,0,0-16.333-50.086-70.775-49.541,0,0-17.965-22.322-45.186-13.067,0,0-52.265-23.549-92.007-2.246,0,0-47.365-10.275-82.751,28.379,0,0-38.109,11.976-47.91,40.832,0,0-46.819,30.22-32.665,65.2,0,0-8.166,6.122-6.532,18.1s10.344,13.066,10.344,13.066" transform="translate(12.723 26.029)" fill="#1168ed"/>
            <path id="Path_178" data-name="Path 178" d="M286.887,142.232a14.777,14.777,0,0,0-5.341,3.023,15.878,15.878,0,0,0-4.139,6.041,14.084,14.084,0,0,0-.268,9.732l.141.4-.409-.109a126.117,126.117,0,0,0-18.381-3.584,118.966,118.966,0,0,0-76,17.323l-.156.1-.174-.057a79.814,79.814,0,0,0-11.719-2.713,106.034,106.034,0,0,0-26.886-.938,47.907,47.907,0,0,0-12.415,2.864,69.009,69.009,0,0,0-11.155,5.091,57.685,57.685,0,0,0-9.262,7.069,93.761,93.761,0,0,0-7.867,7.729,63.349,63.349,0,0,0-10.372,16.75,47.268,47.268,0,0,0-2.574,8.214,36.979,36.979,0,0,0-.741,7.634,54.579,54.579,0,0,0,1.6,12.21c.793,3.3,1.615,5.806,2.189,7.5.286.819.509,1.455.672,1.92.151.433.211.661.211.661a60.522,60.522,0,0,1-3.366-10.009A53.573,53.573,0,0,1,88.738,226.8a37.01,37.01,0,0,1,.691-7.737,47.484,47.484,0,0,1,2.549-8.324,63.534,63.534,0,0,1,10.393-16.964,93.974,93.974,0,0,1,7.9-7.815,58.091,58.091,0,0,1,9.356-7.179,69.078,69.078,0,0,1,11.261-5.17,48.466,48.466,0,0,1,12.594-2.927,106.27,106.27,0,0,1,27.089.926,80.361,80.361,0,0,1,11.837,2.746l-.328.042a118.777,118.777,0,0,1,76.478-17.232,124.175,124.175,0,0,1,18.438,3.725l-.266.287a14.4,14.4,0,0,1,.364-10.005,15.942,15.942,0,0,1,4.3-6.092,14.023,14.023,0,0,1,3.966-2.4c1-.329,1.529-.446,1.529-.446" transform="translate(44.054 70.616)" fill="#263238"/>
            <path id="Path_179" data-name="Path 179" d="M345.072,138.848s-.052.238-.19.69c-.154.483-.365,1.148-.636,2-.522,1.773-1.494,4.32-2.8,7.58a107.421,107.421,0,0,1-5.693,11.45c-1.194,2.192-2.674,4.415-4.2,6.8-1.631,2.311-3.344,4.765-5.335,7.2a108.392,108.392,0,0,1-33.771,27.978,109.776,109.776,0,0,1-24.379,9.126,111.337,111.337,0,0,1-27.775,3.014,108.406,108.406,0,0,1-15.472-1.4,112.621,112.621,0,0,1-14.591-3.455l.346-.061A55.675,55.675,0,0,1,158.6,217.6l.293-.045a39.531,39.531,0,0,1-10.351,5.613,40.634,40.634,0,0,1-10.27,2.364,19.2,19.2,0,0,1-2.426.186c-.8.024-1.58.07-2.35.075-1.535-.088-3.02-.051-4.427-.269l-2.068-.242-1.956-.379a32.448,32.448,0,0,1-3.589-.888,40.494,40.494,0,0,1-9.826-4.389c-1.048-.657-1.787-1.251-2.309-1.612s-.762-.585-.762-.585.286.162.816.51,1.293.9,2.351,1.531a41.949,41.949,0,0,0,9.826,4.211,32.338,32.338,0,0,0,3.568.843l1.941.356,2.052.223c1.393.2,2.864.154,4.383.23.762-.01,1.535-.061,2.324-.091a18.822,18.822,0,0,0,2.4-.2,40.369,40.369,0,0,0,10.13-2.4,39.112,39.112,0,0,0,10.169-5.577l.135-.1.159.058a55.154,55.154,0,0,0,51.3-7.859l.154-.118.192.057a112.116,112.116,0,0,0,14.487,3.416,108.173,108.173,0,0,0,15.361,1.383,111.038,111.038,0,0,0,27.582-2.978,109.553,109.553,0,0,0,24.224-9.019,108.61,108.61,0,0,0,33.675-27.688c1.995-2.411,3.714-4.841,5.356-7.131,1.531-2.364,3.021-4.566,4.229-6.739A111.389,111.389,0,0,0,341.169,149c1.344-3.231,2.358-5.755,2.929-7.511l.708-1.975c.163-.444.266-.666.266-.666" transform="translate(53.901 68.936)" fill="#263238"/>
            <path id="Path_180" data-name="Path 180" d="M114.072,227.209a5.183,5.183,0,0,1-.117-1.453c-.022-.935-.027-2.288.036-3.961a38.018,38.018,0,0,1,2.433-12.867,19.717,19.717,0,0,1,8.5-9.868,12.884,12.884,0,0,1,3.762-1.359,4.307,4.307,0,0,1,1.459-.12,22.133,22.133,0,0,0-4.95,1.959,20.218,20.218,0,0,0-8.053,9.684,42.329,42.329,0,0,0-2.6,12.6,48.931,48.931,0,0,1-.468,5.383" transform="translate(56.569 98.084)" fill="#263238"/>
            <path id="Path_181" data-name="Path 181" d="M314.288,214.279a2.08,2.08,0,0,1-.461-.085l-1.329-.323c-1.215-.313-2.918-.754-5.088-1.315-1.1-.28-2.324-.632-3.674-.947l-4.409-.98-5.063-1.134q-2.712-.5-5.72-1.052a265.5,265.5,0,0,0-63.422-3.788,261.875,261.875,0,0,0-43.51,6.225,289.978,289.978,0,0,0-30.572,9l.135-.169a15.208,15.208,0,0,1-1.776,5.811,12.285,12.285,0,0,1-2.945,3.387,16.519,16.519,0,0,1-3.111,2.032,6.083,6.083,0,0,1,.775-.545,25.274,25.274,0,0,0,2.194-1.658,12.315,12.315,0,0,0,2.8-3.375,15.013,15.013,0,0,0,1.645-5.7l.012-.126.123-.045a270.02,270.02,0,0,1,30.563-9.266,255.479,255.479,0,0,1,43.617-6.341,248.647,248.647,0,0,1,35.128.262,245.644,245.644,0,0,1,28.442,3.762l5.721,1.109,5.06,1.194,4.4,1.045c1.347.337,2.562.712,3.662,1.016l5.054,1.458,1.308.4a2.041,2.041,0,0,1,.438.162" transform="translate(71.167 100.975)" fill="#263238"/>
            <path id="Path_182" data-name="Path 182" d="M300.1,238.392a2.3,2.3,0,0,1,.4-.29c.308-.2.708-.456,1.211-.783,1.058-.7,2.619-1.725,4.537-3.174a62.168,62.168,0,0,0,14.082-14.528,48.419,48.419,0,0,0,6.185-12.5,44.9,44.9,0,0,0,2.141-15.813,36.521,36.521,0,0,0-4.9-16.813,34.247,34.247,0,0,0-13.6-12.861,29.251,29.251,0,0,0-11.212-3.207l-.575-.048.256-.512a32.175,32.175,0,0,0,3.8-16.25,31.232,31.232,0,0,0-4.879-14.639,30.774,30.774,0,0,0-20.8-14.586,42.947,42.947,0,0,0-9.946-.805c-2.942.076-5.464.331-7.521.516-2.019.186-3.6.329-4.732.432-.507.036-.911.064-1.229.085a1.865,1.865,0,0,1-.42,0,1.97,1.97,0,0,1,.413-.078l1.223-.156,4.717-.569c2.055-.229,4.576-.527,7.536-.642a42.673,42.673,0,0,1,10.062.7,33.187,33.187,0,0,1,26.313,29.692c.376,5.583-1.208,11.358-3.853,16.638l-.319-.56a29.947,29.947,0,0,1,11.514,3.286,34.919,34.919,0,0,1,13.9,13.163,37.143,37.143,0,0,1,4.962,17.169,45.28,45.28,0,0,1-2.245,16.047,48.558,48.558,0,0,1-6.345,12.618,60.71,60.71,0,0,1-14.356,14.459,49.141,49.141,0,0,1-6.327,4" transform="translate(125.561 55.175)" fill="#263238"/>
            <path id="Path_183" data-name="Path 183" d="M198.773,158.294a3.37,3.37,0,0,1-1.166-.151,7.479,7.479,0,0,1-1.332-.361,12.28,12.28,0,0,1-1.709-.661,18.756,18.756,0,0,1-4.058-2.513,20.725,20.725,0,0,1-6.589-9.528,18.722,18.722,0,0,1-.917-4.686,12.374,12.374,0,0,1-.016-1.83,7.34,7.34,0,0,1,.133-1.374,3.386,3.386,0,0,1,.268-1.145c.156.018-.127,1.672.163,4.3a20.532,20.532,0,0,0,1.048,4.5,21.608,21.608,0,0,0,6.369,9.211,20.576,20.576,0,0,0,3.84,2.568c2.357,1.2,4,1.52,3.967,1.67" transform="translate(90.835 67.544)" fill="#263238"/>
            <path id="Path_184" data-name="Path 184" d="M159.271,148.468a10.144,10.144,0,0,1,.832,3.635,21.5,21.5,0,0,1-5.779,16.636,10.1,10.1,0,0,1-2.906,2.334c-.087-.108,1.028-.989,2.5-2.7a23.675,23.675,0,0,0,5.639-16.231c-.09-2.257-.417-3.639-.283-3.671" transform="translate(75.174 73.712)" fill="#263238"/>
            <path id="Path_185" data-name="Path 185" d="M129.949,178.637a1.74,1.74,0,0,1-.6.084,7.274,7.274,0,0,1-1.736-.09,10.669,10.669,0,0,1-5.579-3.024,15.979,15.979,0,0,1-4.382-8.335,40.206,40.206,0,0,1-.1-11.533A69.584,69.584,0,0,0,118,144.344a57.023,57.023,0,0,0-1.275-9.214,62.809,62.809,0,0,0-1.687-6.058,16.482,16.482,0,0,1-.691-2.212c.024-.011.124.171.293.527s.411.884.684,1.582A47.8,47.8,0,0,1,117.259,135a52.7,52.7,0,0,1,1.456,9.3,66.039,66.039,0,0,1-.386,11.508,41.061,41.061,0,0,0,.031,11.327,15.734,15.734,0,0,0,4.067,8.083,10.819,10.819,0,0,0,5.247,3.114c1.437.31,2.273.214,2.275.3" transform="translate(56.767 62.984)" fill="#263238"/>
            <path id="Path_186" data-name="Path 186" d="M107.456,184.119c-.183-.093,1.643-1.911,2.282-5.714a18.727,18.727,0,0,0-3.84-13.955c-3.612-4.621-8.3-7.431-11.6-9.38l-3.993-2.26a7.027,7.027,0,0,1-1.432-.9,7.129,7.129,0,0,1,1.57.63c.988.453,2.4,1.134,4.123,2.049,3.385,1.836,8.208,4.608,11.949,9.384,3.716,4.832,4.6,10.682,3.764,14.529a11.878,11.878,0,0,1-1.736,4.31,5.239,5.239,0,0,1-1.088,1.3" transform="translate(44.124 75.419)" fill="#263238"/>
            <path id="Path_187" data-name="Path 187" d="M109.608,216.17a6.025,6.025,0,0,1-1.128.057c-.817,0-1.895.008-3.243.013-1.4-.094-3.126-.233-5.115-.459a61.442,61.442,0,0,1-22.938-8.253,63.011,63.011,0,0,1-16.342-14.169A58.405,58.405,0,0,1,50.615,174.3a33.726,33.726,0,0,1-1.507-9.377,21.877,21.877,0,0,1,.379-4.314,27.259,27.259,0,0,1,1.116-3.824,36.438,36.438,0,0,1,5.787-10.419,15.085,15.085,0,0,1,2.312-2.288,5.49,5.49,0,0,1,.964-.6,6.782,6.782,0,0,1-.865.721,17.558,17.558,0,0,0-2.176,2.356,38.128,38.128,0,0,0-5.5,10.414,27.279,27.279,0,0,0-1.045,3.755,21.465,21.465,0,0,0-.322,4.192,33.393,33.393,0,0,0,1.549,9.175,58.546,58.546,0,0,0,10.145,18.776,63.34,63.34,0,0,0,16.108,14.046A62.538,62.538,0,0,0,93.6,213.891a64.881,64.881,0,0,0,6.589,1.459c1.968.263,3.674.447,5.067.588l3.226.133a6.226,6.226,0,0,1,1.128.1" transform="translate(24.381 71.234)" fill="#263238"/>
            <path id="Path_188" data-name="Path 188" d="M77.407,121.169a3.074,3.074,0,0,1-.8-.049l-2.269-.26a68.083,68.083,0,0,0-8.356-.483,35.345,35.345,0,0,0-12.105,2.1,22.578,22.578,0,0,0-11.566,9.118,16.582,16.582,0,0,0-1.522,14.333,16.119,16.119,0,0,0,8.478,8.382,30.283,30.283,0,0,0,7.985,2.3c1.954.287,3.053.343,3.05.412a3.067,3.067,0,0,1-.8.031c-.524,0-1.3-.046-2.288-.142a28.2,28.2,0,0,1-8.174-2.1,18.88,18.88,0,0,1-4.97-3.131,15,15,0,0,1-3.946-5.486,17.186,17.186,0,0,1,1.519-15,23.046,23.046,0,0,1,11.984-9.39,34.85,34.85,0,0,1,12.355-1.977,56.936,56.936,0,0,1,8.4.733c.982.154,1.74.3,2.254.406a3.1,3.1,0,0,1,.774.205" transform="translate(19.384 59.491)" fill="#263238"/>
            <path id="Path_189" data-name="Path 189" d="M189.924,88.278a1.808,1.808,0,0,1-.362-.251l-1.013-.8c-.89-.7-2.2-1.745-3.94-3a47.518,47.518,0,0,0-16.237-7.874,54.293,54.293,0,0,0-12.4-1.564,49.668,49.668,0,0,0-14.2,1.76,50.387,50.387,0,0,0-14.321,6.644,46.4,46.4,0,0,0-11.876,12.047c-.723,1.061-1.4,2.144-2,3.167l-.118.2-.229-.006a46.117,46.117,0,0,0-29.33,9.875,43.757,43.757,0,0,0-9.3,10.01,46.759,46.759,0,0,0-7.725,27.668c.019,1.019.1,1.92.186,2.7.058.783.141,1.441.229,1.969.069.5.123.895.166,1.209a1.659,1.659,0,0,1,.03.418,33.59,33.59,0,0,1-.907-6.281A45.692,45.692,0,0,1,68.838,129a46.784,46.784,0,0,1,5.233-10.863,44.106,44.106,0,0,1,9.389-10.215,46.619,46.619,0,0,1,29.789-10.1l-.347.193c.611-1.037,1.294-2.138,2.028-3.216a46.923,46.923,0,0,1,12.086-12.235,50.736,50.736,0,0,1,14.562-6.707,49.865,49.865,0,0,1,14.405-1.713,54.257,54.257,0,0,1,12.529,1.675,46.609,46.609,0,0,1,16.279,8.165c1.722,1.3,3,2.385,3.859,3.126l.964.859a1.821,1.821,0,0,1,.311.313" transform="translate(33.012 36.804)" fill="#263238"/>
            <path id="Path_190" data-name="Path 190" d="M86.763,104.622a2.143,2.143,0,0,1,.672.039,14.975,14.975,0,0,1,1.9.34,21.8,21.8,0,0,1,6.516,2.8,22.7,22.7,0,0,1,7.3,7.568,22.491,22.491,0,0,1-1.522,24.574,22.7,22.7,0,0,1-8.178,6.608,21.75,21.75,0,0,1-6.81,1.978,15.33,15.33,0,0,1-1.926.1,2.174,2.174,0,0,1-.672-.045c0-.079.922-.088,2.556-.359a23.483,23.483,0,0,0,6.61-2.173,22.723,22.723,0,0,0,7.849-6.547,22.091,22.091,0,0,0,1.473-23.781,22.749,22.749,0,0,0-6.98-7.466,23.467,23.467,0,0,0-6.293-2.971c-1.588-.47-2.5-.594-2.492-.672" transform="translate(41.724 51.937)" fill="#263238"/>
            <path id="Path_191" data-name="Path 191" d="M126.782,95.77a7.492,7.492,0,0,1,.64,1.814,22.955,22.955,0,0,1,.762,5.2,25.276,25.276,0,0,1-19.424,25.7,23.053,23.053,0,0,1-5.206.687,7.544,7.544,0,0,1-1.92-.121,41.794,41.794,0,0,0,6.987-1.1,25.532,25.532,0,0,0,19.013-25.159,41.562,41.562,0,0,0-.852-7.023" transform="translate(50.46 47.548)" fill="#263238"/>
            <path id="Path_192" data-name="Path 192" d="M151.823,156.069a18.671,18.671,0,0,1,.159-2.424,41.966,41.966,0,0,0-.033-6.583,39.322,39.322,0,0,0-24.122-33.4,42.391,42.391,0,0,0-6.239-2.1,18.507,18.507,0,0,1-2.352-.609,1.9,1.9,0,0,1,.632.034c.409.06,1.019.111,1.787.281a35.1,35.1,0,0,1,6.382,1.886,38.615,38.615,0,0,1,24.461,33.87,35.284,35.284,0,0,1-.214,6.653c-.081.783-.226,1.377-.3,1.785a1.924,1.924,0,0,1-.165.609" transform="translate(59.199 55.078)" fill="#263238"/>
            <path id="Path_193" data-name="Path 193" d="M130.3,87.076a7.959,7.959,0,0,1,1.76.967,22.256,22.256,0,0,1,4.166,3.56,24.927,24.927,0,0,1,4.476,6.8,23.737,23.737,0,0,1,.12,19.5,24.956,24.956,0,0,1-4.392,6.855,22.271,22.271,0,0,1-4.124,3.611,8.021,8.021,0,0,1-1.746.988,36.93,36.93,0,0,0,5.455-4.962,24.407,24.407,0,0,0-.2-32.424,36.953,36.953,0,0,0-5.516-4.9" transform="translate(64.688 43.23)" fill="#263238"/>
            <path id="Path_194" data-name="Path 194" d="M147.453,87.839c.187.03-.679,4.12-3.291,8.5-2.583,4.4-5.751,7.12-5.868,6.971-.175-.166,2.679-3.078,5.2-7.369,2.55-4.268,3.731-8.172,3.961-8.1" transform="translate(68.657 43.61)" fill="#263238"/>
            <path id="Path_195" data-name="Path 195" d="M165.333,52.776a8.477,8.477,0,0,1,1.212.552l1.444.729,1.883,1.155A38.167,38.167,0,0,1,180.006,64.9a40.1,40.1,0,0,1,7.5,19.324,38.092,38.092,0,0,1-6.122,24.481,39.742,39.742,0,0,1-20.274,16.038l.227-.444a68.344,68.344,0,0,1,2.459,28.185,63.661,63.661,0,0,1-1.493,7.975c-.226.913-.45,1.6-.587,2.071a3.559,3.559,0,0,1-.245.7,3.489,3.489,0,0,1,.132-.732c.121-.534.28-1.227.477-2.094a74.749,74.749,0,0,0,1.287-7.97,69.715,69.715,0,0,0-2.712-27.924l-.1-.332.331-.112a39.291,39.291,0,0,0,19.848-15.783A37.6,37.6,0,0,0,186.8,84.3a39.949,39.949,0,0,0-7.238-19.074,39.3,39.3,0,0,0-9.853-9.763l-1.832-1.206-1.4-.79a8.592,8.592,0,0,1-1.139-.691" transform="translate(79.713 26.201)" fill="#263238"/>
            <path id="Path_196" data-name="Path 196" d="M149.242,56.064a5.7,5.7,0,0,1,1.374,1,16.958,16.958,0,0,1,3.029,3.515,19.343,19.343,0,0,1,2.7,6.345,18.185,18.185,0,0,1-3.78,16,19.32,19.32,0,0,1-5.251,4.467,16.944,16.944,0,0,1-4.281,1.788,5.726,5.726,0,0,1-1.675.278,29.11,29.11,0,0,0,5.672-2.538,18.665,18.665,0,0,0,6.154-26.045,29.183,29.183,0,0,0-3.936-4.808" transform="translate(70.179 27.833)" fill="#263238"/>
            <path id="Path_197" data-name="Path 197" d="M253.63,67.177a7.168,7.168,0,0,1-1.217.111c-.8.051-1.974.135-3.479.307a60.432,60.432,0,0,0-12.494,2.78,48.542,48.542,0,0,0-8.081,3.542,69.624,69.624,0,0,0-8.382,5.706c-5.612,4.394-11.385,9.953-15.525,17.087-4.057,7.216-7.735,14.215-10.689,20.747a121.073,121.073,0,0,0-6.555,17.859,85.76,85.76,0,0,0-2.49,12.582c-.224,1.5-.259,2.682-.361,3.475a7.174,7.174,0,0,1-.162,1.214,7.24,7.24,0,0,1,0-1.223c.052-.8.037-1.986.216-3.5a78.106,78.106,0,0,1,2.26-12.692,116.489,116.489,0,0,1,6.432-18.01c2.935-6.583,6.6-13.6,10.668-20.843a60.94,60.94,0,0,1,15.761-17.265,68.54,68.54,0,0,1,8.51-5.7,47.885,47.885,0,0,1,8.217-3.5A56.409,56.409,0,0,1,248.9,67.294c1.517-.127,2.7-.162,3.5-.163a7.186,7.186,0,0,1,1.223.046" transform="translate(91.441 33.329)" fill="#263238"/>
            <path id="Path_198" data-name="Path 198" d="M208.791,59.113c0,.151-2.1.115-5.392.7a36.171,36.171,0,0,0-5.664,1.514,36.12,36.12,0,0,0-12.222,7.355,36.131,36.131,0,0,0-3.991,4.293c-2.062,2.637-3.014,4.507-3.147,4.436a5.382,5.382,0,0,1,.59-1.351,12.991,12.991,0,0,1,.847-1.507,21.809,21.809,0,0,1,1.272-1.91,31.979,31.979,0,0,1,3.942-4.488A34.055,34.055,0,0,1,197.5,60.653a32.07,32.07,0,0,1,5.812-1.38,21.362,21.362,0,0,1,2.282-.229A12.8,12.8,0,0,1,207.322,59a5.334,5.334,0,0,1,1.47.112" transform="translate(88.557 29.287)" fill="#263238"/>
            <path id="Path_199" data-name="Path 199" d="M207.123,139.935c-.009-.073.622-.106,1.66-.486a9.88,9.88,0,0,0,3.808-2.59,16.038,16.038,0,0,0,3.315-6.005,78.145,78.145,0,0,0,2.083-8.323,98.88,98.88,0,0,0,1.8-15.508c.084-2,.078-3.622.1-4.744a7.573,7.573,0,0,1,.076-1.746,7.527,7.527,0,0,1,.226,1.737c.073,1.122.163,2.751.15,4.765a82.41,82.41,0,0,1-1.585,15.647,69.522,69.522,0,0,1-2.168,8.406,15.956,15.956,0,0,1-3.6,6.155,9.444,9.444,0,0,1-4.111,2.5,6.2,6.2,0,0,1-1.293.224c-.3.009-.458,0-.459-.027" transform="translate(102.833 49.912)" fill="#263238"/>
            <path id="Path_200" data-name="Path 200" d="M249.436,154.06c-.224-.051,1.615-3.158,1.552-8.66a24.9,24.9,0,0,0-2.007-9.283,26.884,26.884,0,0,0-6.713-9.449,32.183,32.183,0,0,0-10.023-5.941,40.307,40.307,0,0,0-9.313-2.255,51.01,51.01,0,0,0-6.481-.385,16.929,16.929,0,0,1-2.394-.028,1.921,1.921,0,0,1,.612-.115c.4-.04,1-.129,1.773-.16a41.3,41.3,0,0,1,6.552.141,38.664,38.664,0,0,1,9.5,2.13,32,32,0,0,1,10.291,6.032,26.989,26.989,0,0,1,6.858,9.756,24.6,24.6,0,0,1,1.895,9.557,19.6,19.6,0,0,1-1.1,6.474,12.6,12.6,0,0,1-.694,1.645c-.177.368-.281.555-.305.543" transform="translate(106.275 58.442)" fill="#263238"/>
            <path id="Path_201" data-name="Path 201" d="M214.332,88.9a4.6,4.6,0,0,1,.934-.311c.615-.193,1.54-.418,2.739-.676a45.493,45.493,0,0,1,10.333-.9A40.494,40.494,0,0,1,243.35,90.32a34.044,34.044,0,0,1,14.432,11.973,28.974,28.974,0,0,1,5.206,17.959,27.052,27.052,0,0,1-5.363,14.345,23.766,23.766,0,0,1-7.863,6.742,17.538,17.538,0,0,1-2.6,1.1,4.616,4.616,0,0,1-.943.278,4.624,4.624,0,0,1,.887-.425,22.675,22.675,0,0,0,2.513-1.224,24.452,24.452,0,0,0,7.565-6.8,26.823,26.823,0,0,0,5.089-14.059,28.5,28.5,0,0,0-5.134-17.477,33.7,33.7,0,0,0-14.079-11.756,40.851,40.851,0,0,0-14.74-3.412,49.376,49.376,0,0,0-10.258.652c-2.4.407-3.708.765-3.728.688" transform="translate(106.412 43.194)" fill="#263238"/>
            <path id="Path_202" data-name="Path 202" d="M249.628,110.577c-.162-.034.468-2.336.591-6.13a26.062,26.062,0,0,0-.058-3.1,34.1,34.1,0,0,0-.392-3.529,35.592,35.592,0,0,0-6.18-14.9,34.4,34.4,0,0,0-2.221-2.77,25.992,25.992,0,0,0-2.149-2.23c-2.772-2.592-4.846-3.773-4.756-3.912a6.769,6.769,0,0,1,1.473.787,12.824,12.824,0,0,1,1.627,1.092,21.438,21.438,0,0,1,2.028,1.625,24.467,24.467,0,0,1,2.258,2.2,32.5,32.5,0,0,1,2.322,2.782,34.194,34.194,0,0,1,6.308,15.212,32.289,32.289,0,0,1,.328,3.609,24.014,24.014,0,0,1-.036,3.155,21.187,21.187,0,0,1-.283,2.583,12.84,12.84,0,0,1-.376,1.923,6.781,6.781,0,0,1-.483,1.6" transform="translate(116.405 36.741)" fill="#263238"/>
            <path id="Path_203" data-name="Path 203" d="M289.7,100.3c-.024.156-2.337-.3-6.1-.271a38.921,38.921,0,0,0-6.555.635,39.292,39.292,0,0,0-14.838,6.046,39.065,39.065,0,0,0-5.131,4.129c-2.712,2.608-4.045,4.552-4.172,4.458a6.744,6.744,0,0,1,.88-1.4,14.244,14.244,0,0,1,1.185-1.535,23.874,23.874,0,0,1,1.72-1.914,35.386,35.386,0,0,1,5.115-4.329,37.379,37.379,0,0,1,15.116-6.161,35.364,35.364,0,0,1,6.683-.479,23.9,23.9,0,0,1,2.568.166,14.5,14.5,0,0,1,1.922.271,6.747,6.747,0,0,1,1.607.386" transform="translate(125.56 49.379)" fill="#263238"/>
            <path id="Path_204" data-name="Path 204" d="M311.953,185.387a2.435,2.435,0,0,1,.34.711,16.943,16.943,0,0,1,.634,2.167,27.466,27.466,0,0,1,.515,8.274,35.473,35.473,0,0,1-3.2,11.872,49.317,49.317,0,0,1-8.409,12.484,38.532,38.532,0,0,1-12.051,9.009A35.822,35.822,0,0,1,277.9,233.08a62.712,62.712,0,0,1-8.278.16c-.973-.033-1.725-.033-2.234-.016a3.138,3.138,0,0,1-.784.028,3.047,3.047,0,0,1,.769-.186,20.251,20.251,0,0,1,2.251-.129,78.087,78.087,0,0,0,8.217-.406,36.375,36.375,0,0,0,11.632-3.28,38.558,38.558,0,0,0,11.78-8.885,49.943,49.943,0,0,0,8.334-12.259,36.023,36.023,0,0,0,3.3-11.619,29.478,29.478,0,0,0-.262-8.163c-.169-.955-.358-1.684-.488-2.179a3.786,3.786,0,0,1-.19-.76" transform="translate(132.365 92.041)" fill="#263238"/>
            <g id="Group_70" data-name="Group 70" transform="translate(129.888 213.856)" opacity="0.3">
              <g id="Group_69" data-name="Group 69">
                <g id="Group_68" data-name="Group 68" clip-path="url(#clip-path-3)">
                  <path id="Path_205" data-name="Path 205" d="M284.131,142.906a48.078,48.078,0,0,0-17.057,10.4,95.837,95.837,0,0,0-74.924,5.527c-4.023,2.1-7.951,4.521-12.339,5.687-5.458,1.45-11.216.861-16.853.546-12.729-.709-25.69.07-37.812,4.019s-23.394,11.261-30.612,21.769-9.959,24.369-5.757,36.4l1.423,2.1c-1.11-13.018,4.527-25.921,14.134-36.532s22.857-19.959,37.036-21.913,27.8.852,41.875,3.478c28.891-15.771,62.343-21.115,94.293-13.2a14.759,14.759,0,0,1,6.592-18.283" transform="translate(-86.796 -142.906)"/>
                </g>
              </g>
            </g>
            <g id="Group_73" data-name="Group 73" transform="translate(168.983 263.935)" opacity="0.3">
              <g id="Group_72" data-name="Group 72">
                <g id="Group_71" data-name="Group 71" clip-path="url(#clip-path-4)">
                  <path id="Path_206" data-name="Path 206" d="M208.186,190.843a61.328,61.328,0,0,1-51.295,7.825c-24.924,12.862-32.414,7.916-43.971,4.117,5.715,7.008,16.31,10.8,25.343,11.234a32.8,32.8,0,0,0,24.548-9.558c12.461,4.537,26.2,3.03,39.374,1.462q16.485-1.962,32.969-3.922c12.142-1.446,24.367-2.908,36.029-6.583s22.859-9.736,30.786-19.047c-27.631,18.679-61.656,23.429-93.783,14.473" transform="translate(-112.92 -176.37)"/>
                </g>
              </g>
            </g>
            <g id="Group_76" data-name="Group 76" transform="translate(127.008 159.121)" opacity="0.3">
              <g id="Group_75" data-name="Group 75" transform="translate(0)">
                <g id="Group_74" data-name="Group 74" clip-path="url(#clip-path-5)">
                  <path id="Path_207" data-name="Path 207" d="M84.871,147.676c5.284,1.707,12.936.174,17.811-2.484a20.782,20.782,0,0,0,10-12.747c.379-1.428.676-3.02,1.827-3.945,1.224-.985,2.962-.857,4.531-.892a17.525,17.525,0,0,0,16.732-21.278c-4.412,11.794-18.6,18.929-30.7,15.435-.4,10.421-3.524,22.812-20.205,25.912" transform="translate(-84.871 -106.33)"/>
                </g>
              </g>
            </g>
            <g id="Group_79" data-name="Group 79" transform="translate(95.507 102.515)" opacity="0.3">
              <g id="Group_78" data-name="Group 78">
                <g id="Group_77" data-name="Group 77" clip-path="url(#clip-path-6)">
                  <path id="Path_208" data-name="Path 208" d="M193.652,86.628a44.747,44.747,0,0,0-42.12-17.714,57.212,57.212,0,0,0-40.1,25.708c-8.267.235-16.6,1.51-24.179,4.832S72.894,108.277,69,115.576c-6.469,12.145-7.273,27.02-.193,39.664-2.43-15.074.682-27.694,8.862-37.393s25.374-17.652,38.066-17c4.474-10.579,12.841-17.638,23.893-20.765s23.547-3.449,34.489.04,26.552,20.011,26.57,22.452c.611-5.429-1.96-9.034-7.041-15.942" transform="translate(-63.821 -68.504)"/>
                </g>
              </g>
            </g>
            <g id="Group_82" data-name="Group 82" transform="translate(275.124 99.907)" opacity="0.3">
              <g id="Group_81" data-name="Group 81" transform="translate(0)">
                <g id="Group_80" data-name="Group 80" clip-path="url(#clip-path-7)">
                  <path id="Path_209" data-name="Path 209" d="M248.255,67.252c-20.093-3-40.673,8.048-52.366,24.661s-13.063,35.652-11.527,55.909c0,0,7.435-34.32,19.565-50.517,14.752-19.7,39.485-33.011,44.329-30.052" transform="translate(-183.847 -66.761)"/>
                </g>
              </g>
            </g>
            <g id="Group_85" data-name="Group 85" transform="translate(320.33 154.941)" opacity="0.3">
              <g id="Group_84" data-name="Group 84" transform="translate(0)">
                <g id="Group_83" data-name="Group 83" clip-path="url(#clip-path-8)">
                  <path id="Path_210" data-name="Path 210" d="M216.837,104.074a29.9,29.9,0,0,1,2.209,16c10.4-.085,19.929,6.691,25.564,15.43a35.272,35.272,0,0,0-14.867-8.9c-5.567-1.676-10.6-2.525-15.688-.831,1.254-7.789,3.286-15.239,2.587-22.238" transform="translate(-214.055 -103.537)"/>
                </g>
              </g>
            </g>
            <g id="Group_88" data-name="Group 88" transform="translate(424.745 223.564)" opacity="0.3">
              <g id="Group_87" data-name="Group 87" transform="translate(0)">
                <g id="Group_86" data-name="Group 86" clip-path="url(#clip-path-9)">
                  <path id="Path_211" data-name="Path 211" d="M320.453,167.475A31.737,31.737,0,0,0,305.6,149.393c11.158,16.373,9.42,38.126-2.2,53.864,3.5,12.31.85,27.624-19.571,42.749,12.259-2.044,25.552-15.373,27.13-27.7.655-5.128-.043-10.456,1.459-15.4,1.321-4.35,4.231-8.018,6.245-12.095a31.736,31.736,0,0,0,1.79-23.332" transform="translate(-283.829 -149.393)"/>
                </g>
              </g>
            </g>
            <g id="Group_91" data-name="Group 91" transform="translate(58.441 199.578)" opacity="0.3">
              <g id="Group_90" data-name="Group 90" transform="translate(0)">
                <g id="Group_89" data-name="Group 89" clip-path="url(#clip-path-10)">
                  <path id="Path_212" data-name="Path 212" d="M39.052,133.724c.043.194.1.373.15.564.066-.308.126-.619.2-.923Z" transform="translate(-39.052 -133.365)"/>
                </g>
              </g>
            </g>
            <g id="Group_94" data-name="Group 94" transform="translate(58.016 200.502)" opacity="0.3">
              <g id="Group_93" data-name="Group 93" transform="translate(0)">
                <g id="Group_92" data-name="Group 92" clip-path="url(#clip-path-11)">
                  <path id="Path_213" data-name="Path 213" d="M60.156,186.6a32.553,32.553,0,0,1-5.127-10.384c-2.14-8.922,2.393-17.944,6.781-26C51.25,151.28,42.273,146,39.342,133.982c-1.76,8.2.492,17.868,7.238,22.762a46.255,46.255,0,0,0,38.112,56.45A120.592,120.592,0,0,1,60.156,186.6" transform="translate(-38.768 -133.982)"/>
                </g>
              </g>
            </g>
            <path id="Path_214" data-name="Path 214" d="M205.573,233.834c-1.224,2.173-16.559,15.08-11.544,30.955,6.525,20.654,37.738,21.361,62.3,16.582,36.082-7.021,53.178-22.441,53.178-43.084,0-16.632-103.931-4.454-103.931-4.454" transform="translate(95.833 113.959)" fill="#1168ed"/>
            <path id="Path_215" data-name="Path 215" d="M310.464,237.374a6.982,6.982,0,0,1-1.209-.168l-3.433-.626c-1.485-.3-3.313-.6-5.441-.926-2.122-.353-4.543-.724-7.233-1.04-5.365-.739-11.792-1.3-18.935-1.779-7.146-.442-15.017-.653-23.281-.681-16.538-.019-31.5.786-42.319,1.384L195.8,234.3l-3.487.184a7.154,7.154,0,0,1-1.22.011,7.165,7.165,0,0,1,1.208-.168q1.3-.123,3.476-.331c3.02-.272,7.394-.622,12.8-1,10.816-.739,25.789-1.633,42.353-1.612,8.279.027,16.167.26,23.327.742,7.156.516,13.594,1.14,18.962,1.95,2.691.352,5.112.762,7.231,1.157,2.125.364,3.949.708,5.428,1.058l3.408.771a7,7,0,0,1,1.176.32" transform="translate(94.873 114.874)" fill="#263238"/>
            <g id="Group_97" data-name="Group 97" transform="translate(292.612 349.009)" opacity="0.3">
              <g id="Group_96" data-name="Group 96" transform="translate(0)">
                <g id="Group_95" data-name="Group 95" clip-path="url(#clip-path-12)">
                  <path id="Path_216" data-name="Path 216" d="M195.533,233.232l.256-.012Z" transform="translate(-195.533 -233.22)"/>
                </g>
              </g>
            </g>
            <g id="Group_100" data-name="Group 100" transform="translate(292.868 346.748)" opacity="0.3">
              <g id="Group_99" data-name="Group 99">
                <g id="Group_98" data-name="Group 98" clip-path="url(#clip-path-13)">
                  <path id="Path_217" data-name="Path 217" d="M308.174,237.516c-36.495-9.012-74.917-5.292-112.47-3.545,39.711,3.668,77.636,3.729,112.47,3.545" transform="translate(-195.704 -231.709)"/>
                </g>
              </g>
            </g>
            <g id="Group_103" data-name="Group 103" transform="translate(199.537 304.023)" opacity="0.3">
              <g id="Group_102" data-name="Group 102">
                <g id="Group_101" data-name="Group 101" clip-path="url(#clip-path-14)">
                  <path id="Path_218" data-name="Path 218" d="M179.553,212.261c-6.321,1.856-17.91,5.368-23.618,7.527-.865,4.747-2.76,8.723-6.95,10.984a28.934,28.934,0,0,1-15.649,2.325c6.3,1.208,12.826,2.285,19.062.805s12.15-6.163,13.108-12.5A289.71,289.71,0,0,1,276.875,206.7c-32.04-6.529-65.948-3.65-97.322,5.564" transform="translate(-133.337 -203.159)"/>
                </g>
              </g>
            </g>
            <g id="Group_106" data-name="Group 106" transform="translate(361.043 121.009)" opacity="0.3">
              <g id="Group_105" data-name="Group 105">
                <g id="Group_104" data-name="Group 104" clip-path="url(#clip-path-15)">
                  <path id="Path_219" data-name="Path 219" d="M243.327,138.186c.1-.052.2-.108.3-.162,8.289-4.587,12.473-15.516,9.3-24.456a16.052,16.052,0,0,1-1.315-4.554,16.231,16.231,0,0,1,.961-4.76,20.608,20.608,0,0,0-11.312-23.392c2.086,2.4,8.708,12.081,4.507,28.1,0,0,5.209,9.331,3.125,17.41" transform="translate(-241.26 -80.861)"/>
                </g>
              </g>
            </g>
            <g id="Group_109" data-name="Group 109" transform="translate(194.689 146.621)" opacity="0.3">
              <g id="Group_108" data-name="Group 108" transform="translate(0)">
                <g id="Group_107" data-name="Group 107" clip-path="url(#clip-path-16)">
                  <path id="Path_220" data-name="Path 220" d="M146.577,161.534c4.542-4.241,4.65-13.154,2.969-19.137s-5.609-11.065-9.8-15.655a19.472,19.472,0,0,0,2.742-28.765c-.658,5.137-.7,11.515-2.969,16.171a20.127,20.127,0,0,1-9.422,9.8c11.756,5.872,17.283,22.592,16.84,33.49Z" transform="translate(-130.098 -97.977)"/>
                </g>
              </g>
            </g>
            <path id="Path_221" data-name="Path 221" d="M285.916,201.716a22.272,22.272,0,0,0,.257-8.256,22.778,22.778,0,0,0-3.241-8.307,27.678,27.678,0,0,0-7.692-7.752,41.182,41.182,0,0,0-9.886-4.852,65.753,65.753,0,0,0-8.737-2.367c-2.533-.5-4.611-.789-6.04-1.024a12.789,12.789,0,0,1-2.215-.432,12.416,12.416,0,0,1,2.252.13c1.444.144,3.535.355,6.1.784a59.371,59.371,0,0,1,8.867,2.23,40.219,40.219,0,0,1,10.1,4.889,27.662,27.662,0,0,1,7.859,8.012,22.553,22.553,0,0,1,3.176,8.6,17.924,17.924,0,0,1-.132,6.179,11.5,11.5,0,0,1-.44,1.624c-.126.362-.2.548-.229.54" transform="translate(123.308 83.759)" fill="#263238"/>
            <g id="Group_112" data-name="Group 112" transform="translate(371.482 220.917)" opacity="0.3">
              <g id="Group_111" data-name="Group 111" transform="translate(0)">
                <g id="Group_110" data-name="Group 110" clip-path="url(#clip-path-17)">
                  <path id="Path_222" data-name="Path 222" d="M267.094,172.73a57.141,57.141,0,0,0,3.768-25.105c-5.2,11.9-13.405,22.821-22.625,31.966,12.156.7,24.551,5.248,33.25,13.766a23.253,23.253,0,0,0-14.393-20.627" transform="translate(-248.237 -147.623)"/>
                </g>
              </g>
            </g>
            <path id="Path_225" data-name="Path 225" d="M135.189,284.644a5.564,5.564,0,1,1-5.564-5.564,5.565,5.565,0,0,1,5.564,5.564" transform="translate(61.594 138.558)" fill="#1168ed"/>
            <path id="Path_226" data-name="Path 226" d="M302.308,246.354a5.564,5.564,0,1,1-5.564-5.564,5.565,5.565,0,0,1,5.564,5.564" transform="translate(144.566 119.548)" fill="#1168ed"/>
            <path id="Path_227" data-name="Path 227" d="M298.982,72.32a3.676,3.676,0,1,1-3.675-3.675,3.675,3.675,0,0,1,3.675,3.675" transform="translate(144.789 34.081)" fill="#1168ed"/>
            <path id="Path_228" data-name="Path 228" d="M294.151,273.8a5.564,5.564,0,1,1-5.564-5.564,5.565,5.565,0,0,1,5.564,5.564" transform="translate(140.516 133.175)" fill="#1168ed"/>
            <path id="Path_229" data-name="Path 229" d="M158.138,288.528a9.382,9.382,0,1,1-9.383-9.382,9.383,9.383,0,0,1,9.383,9.382" transform="translate(69.197 138.591)" fill="#1168ed"/>
            <path id="Path_230" data-name="Path 230" d="M348.6,260.278a9.382,9.382,0,1,1-9.381-9.381,9.382,9.382,0,0,1,9.381,9.381" transform="translate(163.756 124.566)" fill="#1168ed"/>
            <path id="Path_231" data-name="Path 231" d="M286.9,71.528a6.2,6.2,0,1,1-6.2-6.2,6.2,6.2,0,0,1,6.2,6.2" transform="translate(136.283 32.435)" fill="#1168ed"/>
            <path id="Path_232" data-name="Path 232" d="M187.559,38.556a8.873,8.873,0,1,1-8.874-8.874,8.874,8.874,0,0,1,8.874,8.874" transform="translate(84.309 14.737)" fill="#1168ed"/>
            <path id="Path_233" data-name="Path 233" d="M15.6,176.3a7.536,7.536,0,1,1-7.535-7.535A7.534,7.534,0,0,1,15.6,176.3" transform="translate(0.262 83.79)" fill="#1168ed"/>
            <path id="Path_234" data-name="Path 234" d="M109.912,17.7a7.536,7.536,0,1,1-7.535-7.535,7.534,7.534,0,0,1,7.535,7.535" transform="translate(47.087 5.045)" fill="#1168ed"/>
            <path id="Path_235" data-name="Path 235" d="M161.674,36.868a5.115,5.115,0,1,1-5.115-5.115,5.114,5.114,0,0,1,5.115,5.115" transform="translate(75.189 15.765)" fill="#1168ed"/>
            <path id="Path_236" data-name="Path 236" d="M227.252,41.5a5.115,5.115,0,1,1-5.115-5.115,5.114,5.114,0,0,1,5.115,5.115" transform="translate(107.748 18.064)" fill="#1168ed"/>
            <path id="Path_237" data-name="Path 237" d="M95.686,31.379a5.115,5.115,0,1,1-5.115-5.115,5.114,5.114,0,0,1,5.115,5.115" transform="translate(42.427 13.04)" fill="#1168ed"/>
            <path id="Path_238" data-name="Path 238" d="M179.148,20.492a2.558,2.558,0,1,1-2.559-2.557,2.558,2.558,0,0,1,2.559,2.557" transform="translate(86.404 8.904)" fill="#1168ed"/>
            <path id="Path_239" data-name="Path 239" d="M143.592,2.557A2.558,2.558,0,1,1,141.035,0a2.557,2.557,0,0,1,2.558,2.557" transform="translate(68.751)" fill="#1168ed"/>
            <path id="Path_240" data-name="Path 240" d="M115.533,39.437a2.558,2.558,0,1,1-2.559-2.557,2.558,2.558,0,0,1,2.559,2.557" transform="translate(54.82 18.31)" fill="#1168ed"/>
            <path id="Path_241" data-name="Path 241" d="M348.617,163.029a4.691,4.691,0,1,1-4.69-4.691,4.691,4.691,0,0,1,4.69,4.691" transform="translate(168.425 78.612)" fill="#1168ed"/>
            <path id="Path_242" data-name="Path 242" d="M336.918,177.83a5.564,5.564,0,1,1-5.564-5.564,5.565,5.565,0,0,1,5.564,5.564" transform="translate(161.749 85.527)" fill="#1168ed"/>
            <path id="Path_243" data-name="Path 243" d="M326.607,149.432a2.346,2.346,0,1,1,3.291.421,2.345,2.345,0,0,1-3.291-.421" transform="translate(161.911 72.314)" fill="#1168ed"/>
            <path id="Path_244" data-name="Path 244" d="M279.888,82.05a1.88,1.88,0,1,1-1.881-1.881,1.882,1.882,0,0,1,1.881,1.881" transform="translate(137.092 39.803)" fill="#1168ed"/>
            <path id="Path_245" data-name="Path 245" d="M314.506,238.953a2.846,2.846,0,1,1-2.847-2.846,2.847,2.847,0,0,1,2.847,2.846" transform="translate(153.32 117.223)" fill="#1168ed"/>
            <path id="Path_246" data-name="Path 246" d="M112.379,249.37a8.181,8.181,0,1,1-8.181-8.181,8.181,8.181,0,0,1,8.181,8.181" transform="translate(47.671 119.746)" fill="#1168ed"/>
            <path id="Path_247" data-name="Path 247" d="M98.077,262a3.1,3.1,0,1,1-3.1-3.1,3.1,3.1,0,0,1,3.1,3.1" transform="translate(45.612 128.538)" fill="#1168ed"/>
          </g>
        </g>
      </g>
    </g>
  </g>
</svg>
