<svg xmlns="http://www.w3.org/2000/svg" width="430" height="72" viewBox="0 0 430 72">
  <g id="Group_122" data-name="Group 122" transform="translate(0 -92)">
    <rect id="Rectangle_26" data-name="Rectangle 26" width="430" height="72" transform="translate(0 92)" fill="#1168ed"/>
    <g id="Group_66" data-name="Group 66" transform="translate(11)">
      <text id="Download" transform="translate(223 134)" fill="#fff" font-size="18" font-family="Roboto-Bold, Roboto" font-weight="700"><tspan x="-40.135" y="0">Download</tspan></text>
      <g id="fi-sr-disk" transform="translate(145 116)">
        <circle id="Ellipse_2" data-name="Ellipse 2" cx="2" cy="2" r="2" transform="translate(10 12)" fill="#e8f0f7"/>
        <path id="Path_172" data-name="Path 172" d="M22.536,4.122,19.878,1.464A4.99,4.99,0,0,0,19,.775V3a5.006,5.006,0,0,1-5,5H10A5.006,5.006,0,0,1,5,3V0A5.006,5.006,0,0,0,0,5V19a5.006,5.006,0,0,0,5,5H19a5.006,5.006,0,0,0,5-5V7.657a4.966,4.966,0,0,0-1.464-3.535ZM12,18a4,4,0,1,1,4-4A4,4,0,0,1,12,18Z" fill="#e8f0f7"/>
        <path id="Path_173" data-name="Path 173" d="M10,6h4a3,3,0,0,0,3-3V.064A5.128,5.128,0,0,0,16.343,0H7V3A3,3,0,0,0,10,6Z" fill="#e8f0f7"/>
      </g>
    </g>
  </g>
</svg>
