<svg xmlns="http://www.w3.org/2000/svg" xmlns:xlink="http://www.w3.org/1999/xlink" width="430.192" height="156.297" viewBox="0 0 430.192 156.297">
  <defs>
    <clipPath id="clip-path">
      <rect id="Rectangle_55" data-name="Rectangle 55" width="430" height="156" transform="translate(0 776)" fill="#1168ed"/>
    </clipPath>
    <clipPath id="clip-path-2">
      <rect id="Rectangle_51" data-name="Rectangle 51" width="250.921" height="208.988" fill="none"/>
    </clipPath>
    <clipPath id="clip-path-4">
      <rect id="Rectangle_35" data-name="Rectangle 35" width="94.481" height="41.391" fill="none"/>
    </clipPath>
    <clipPath id="clip-path-5">
      <rect id="Rectangle_36" data-name="Rectangle 36" width="90.513" height="18.042" fill="none"/>
    </clipPath>
    <clipPath id="clip-path-6">
      <rect id="Rectangle_37" data-name="Rectangle 37" width="24.561" height="20.14" fill="none"/>
    </clipPath>
    <clipPath id="clip-path-7">
      <rect id="Rectangle_38" data-name="Rectangle 38" width="65.574" height="41.528" fill="none"/>
    </clipPath>
    <clipPath id="clip-path-8">
      <rect id="Rectangle_39" data-name="Rectangle 39" width="30.838" height="38.811" fill="none"/>
    </clipPath>
    <clipPath id="clip-path-9">
      <rect id="Rectangle_40" data-name="Rectangle 40" width="14.629" height="15.303" fill="none"/>
    </clipPath>
    <clipPath id="clip-path-10">
      <rect id="Rectangle_41" data-name="Rectangle 41" width="18.218" height="46.256" fill="none"/>
    </clipPath>
    <clipPath id="clip-path-11">
      <rect id="Rectangle_42" data-name="Rectangle 42" width="0.169" height="0.442" fill="none"/>
    </clipPath>
    <clipPath id="clip-path-12">
      <rect id="Rectangle_43" data-name="Rectangle 43" width="21.988" height="37.925" fill="none"/>
    </clipPath>
    <clipPath id="clip-path-13">
      <rect id="Rectangle_44" data-name="Rectangle 44" width="0.123" height="0.006" fill="none"/>
    </clipPath>
    <clipPath id="clip-path-14">
      <rect id="Rectangle_45" data-name="Rectangle 45" width="53.848" height="2.807" fill="none"/>
    </clipPath>
    <clipPath id="clip-path-15">
      <rect id="Rectangle_46" data-name="Rectangle 46" width="68.724" height="15.064" fill="none"/>
    </clipPath>
    <clipPath id="clip-path-16">
      <rect id="Rectangle_47" data-name="Rectangle 47" width="6.094" height="27.446" fill="none"/>
    </clipPath>
    <clipPath id="clip-path-17">
      <rect id="Rectangle_48" data-name="Rectangle 48" width="9.789" height="30.431" fill="none"/>
    </clipPath>
    <clipPath id="clip-path-18">
      <rect id="Rectangle_49" data-name="Rectangle 49" width="15.92" height="21.896" fill="none"/>
    </clipPath>
  </defs>
  <g id="footer" transform="translate(0 -776)">
    <rect id="Rectangle_34" data-name="Rectangle 34" width="430" height="156" transform="translate(0 776)" fill="#1168ed"/>
    <path id="Path_174" data-name="Path 174" d="M-231.7,932.3s-6.189-47.325,40.408-89.189,55.509-66.886,55.509-66.886H10.549L10.377,932.05Z" transform="translate(419.643 0)" fill="#0345ab"/>
    <g id="Mask_Group_5" data-name="Mask Group 5" clip-path="url(#clip-path)">
      <g id="Group_116" data-name="Group 116" transform="translate(203.497 780.485)">
        <g id="Group_115" data-name="Group 115" clip-path="url(#clip-path-2)">
          <g id="Group_114" data-name="Group 114">
            <g id="Group_113" data-name="Group 113" clip-path="url(#clip-path-2)">
              <path id="Path_175" data-name="Path 175" d="M160.936,229.887c-1.013,1.029,7.765,6.717,11.442,11.469s16.96,29.327,24.111,27.525,1.839-20.808,1.839-20.808,3.183-20.808,1.9-20.643-36.226-.656-39.291,2.458" transform="translate(-45.604 -64.479)" fill="#ff725e"/>
              <path id="Path_176" data-name="Path 176" d="M160.936,229.887c-1.013,1.029,7.765,6.717,11.442,11.469s16.96,29.327,24.111,27.525,1.839-20.808,1.839-20.808,3.183-20.808,1.9-20.643-36.226-.656-39.291,2.458" transform="translate(-45.604 -64.479)" fill="#0056d3"/>
              <path id="Path_177" data-name="Path 177" d="M30.681,135.969s.522,17.985,21.9,21.9l18.768,1.825s.521,25.805,31.018,26.326l23.719-2.867s36.491-1.033,59.951,1.042c6.686.591,16.434,1.544,26.078-1.844s42.475-34.387,9.372-72.964c0,0,2.867-17.464-14.858-21.635,0,0-7.82-23.98-33.886-23.719,0,0-8.6-10.687-21.634-6.256,0,0-25.023-11.275-44.051-1.075,0,0-22.678-4.919-39.62,13.587,0,0-18.246,5.734-22.938,19.549,0,0-22.416,14.469-15.64,31.215a9.41,9.41,0,0,0-3.127,8.666c.782,5.734,4.952,6.256,4.952,6.256" transform="translate(-7.265 -14.863)" fill="#1168ed"/>
              <path id="Path_178" data-name="Path 178" d="M183.6,142.232a7.075,7.075,0,0,0-2.557,1.447,7.6,7.6,0,0,0-1.982,2.893,6.743,6.743,0,0,0-.128,4.659l.067.189-.2-.052a60.383,60.383,0,0,0-8.8-1.716,56.959,56.959,0,0,0-36.386,8.294l-.075.047-.083-.027a38.214,38.214,0,0,0-5.611-1.3,50.767,50.767,0,0,0-12.872-.449,22.937,22.937,0,0,0-5.944,1.371,33.041,33.041,0,0,0-5.341,2.438,27.618,27.618,0,0,0-4.434,3.385,44.889,44.889,0,0,0-3.767,3.7,30.33,30.33,0,0,0-4.966,8.02,22.631,22.631,0,0,0-1.232,3.933,17.7,17.7,0,0,0-.355,3.655,26.131,26.131,0,0,0,.766,5.846c.38,1.579.773,2.78,1.048,3.59l.322.919c.072.207.1.317.1.317a28.977,28.977,0,0,1-1.611-4.792,25.65,25.65,0,0,1-.834-5.878,17.72,17.72,0,0,1,.331-3.7,22.734,22.734,0,0,1,1.22-3.985,30.419,30.419,0,0,1,4.976-8.122,45,45,0,0,1,3.78-3.742,27.814,27.814,0,0,1,4.479-3.437,33.075,33.075,0,0,1,5.392-2.475,23.205,23.205,0,0,1,6.03-1.4,50.881,50.881,0,0,1,12.97.443,38.477,38.477,0,0,1,5.667,1.315l-.157.02a56.868,56.868,0,0,1,36.616-8.25,59.453,59.453,0,0,1,8.828,1.783l-.128.138a6.9,6.9,0,0,1,.174-4.79,7.632,7.632,0,0,1,2.06-2.917,6.714,6.714,0,0,1,1.9-1.15c.479-.158.732-.214.732-.214" transform="translate(-25.156 -40.324)" fill="#263238"/>
              <path id="Path_179" data-name="Path 179" d="M221.8,138.848s-.025.114-.091.33l-.3.959c-.25.849-.715,2.069-1.34,3.629a51.436,51.436,0,0,1-2.726,5.482c-.572,1.05-1.28,2.114-2.01,3.256-.781,1.106-1.6,2.281-2.554,3.446a51.9,51.9,0,0,1-16.169,13.4,52.559,52.559,0,0,1-11.672,4.369,53.305,53.305,0,0,1-13.3,1.443,51.9,51.9,0,0,1-7.408-.668,53.924,53.924,0,0,1-6.986-1.654l.165-.029a26.656,26.656,0,0,1-24.885,3.75l.14-.021a18.926,18.926,0,0,1-4.956,2.688,19.455,19.455,0,0,1-4.917,1.132,9.19,9.19,0,0,1-1.161.089c-.382.012-.757.034-1.125.036-.735-.042-1.446-.024-2.119-.129l-.99-.116-.936-.181a15.526,15.526,0,0,1-1.718-.425,19.389,19.389,0,0,1-4.7-2.1c-.5-.315-.855-.6-1.106-.772s-.365-.28-.365-.28.137.077.391.244.619.433,1.126.733a20.084,20.084,0,0,0,4.7,2.016,15.481,15.481,0,0,0,1.708.4l.929.171.982.107c.667.1,1.371.074,2.1.11.365-.005.735-.029,1.113-.044a9.01,9.01,0,0,0,1.149-.1,19.33,19.33,0,0,0,4.85-1.147,18.727,18.727,0,0,0,4.869-2.67l.064-.049.076.028a26.407,26.407,0,0,0,24.563-3.763l.074-.057.092.027a53.679,53.679,0,0,0,6.936,1.636,51.791,51.791,0,0,0,7.355.662,53.163,53.163,0,0,0,13.206-1.426,50.4,50.4,0,0,0,27.721-17.575c.955-1.154,1.778-2.318,2.564-3.414.733-1.132,1.447-2.186,2.025-3.226a53.337,53.337,0,0,0,2.773-5.435c.643-1.547,1.129-2.756,1.4-3.6l.339-.946c.078-.213.128-.319.128-.319" transform="translate(-30.779 -39.365)" fill="#263238"/>
              <path id="Path_180" data-name="Path 180" d="M114,211.755a2.482,2.482,0,0,1-.056-.7c-.011-.448-.013-1.1.017-1.9a18.2,18.2,0,0,1,1.165-6.16,9.44,9.44,0,0,1,4.07-4.725,6.168,6.168,0,0,1,1.8-.651,2.062,2.062,0,0,1,.7-.057,10.6,10.6,0,0,0-2.37.938,9.68,9.68,0,0,0-3.855,4.636,20.266,20.266,0,0,0-1.247,6.034,23.426,23.426,0,0,1-.224,2.577" transform="translate(-32.303 -56.01)" fill="#263238"/>
              <path id="Path_181" data-name="Path 181" d="M225.188,208.6a.994.994,0,0,1-.221-.041l-.636-.155-2.436-.63c-.529-.134-1.113-.3-1.759-.454l-2.111-.469-2.424-.543-2.738-.5A127.115,127.115,0,0,0,182.5,203.99a125.381,125.381,0,0,0-20.832,2.981,138.843,138.843,0,0,0-14.637,4.307l.064-.081a7.281,7.281,0,0,1-.85,2.782,5.882,5.882,0,0,1-1.41,1.621,7.91,7.91,0,0,1-1.49.973,2.908,2.908,0,0,1,.371-.261,12.093,12.093,0,0,0,1.05-.794,5.9,5.9,0,0,0,1.343-1.616,7.188,7.188,0,0,0,.787-2.731l.006-.06.059-.021a129.281,129.281,0,0,1,14.633-4.436,122.32,122.32,0,0,1,20.883-3.036,119.052,119.052,0,0,1,16.819.125,117.615,117.615,0,0,1,13.618,1.8l2.739.531,2.422.572,2.106.5c.645.161,1.227.341,1.753.486l2.42.7.626.19a.975.975,0,0,1,.21.077" transform="translate(-40.639 -57.661)" fill="#263238"/>
              <path id="Path_182" data-name="Path 182" d="M275.5,172.061a1.1,1.1,0,0,1,.191-.139l.58-.375c.507-.333,1.254-.826,2.172-1.52a29.765,29.765,0,0,0,6.742-6.956,23.183,23.183,0,0,0,2.961-5.987,21.5,21.5,0,0,0,1.025-7.571,17.486,17.486,0,0,0-2.347-8.05,16.4,16.4,0,0,0-6.512-6.157,14,14,0,0,0-5.368-1.535l-.275-.023.123-.245a15.4,15.4,0,0,0,1.821-7.78,14.953,14.953,0,0,0-2.336-7.009,14.734,14.734,0,0,0-9.957-6.984,20.563,20.563,0,0,0-4.762-.385c-1.409.037-2.616.158-3.6.247l-2.266.207-.588.041a.894.894,0,0,1-.2,0,.944.944,0,0,1,.2-.037l.585-.075,2.258-.272c.984-.11,2.191-.252,3.608-.307a20.431,20.431,0,0,1,4.818.337,15.889,15.889,0,0,1,12.6,14.216,15.72,15.72,0,0,1-1.845,7.966l-.153-.268a14.338,14.338,0,0,1,5.513,1.573,16.719,16.719,0,0,1,6.656,6.3,17.783,17.783,0,0,1,2.376,8.22,21.679,21.679,0,0,1-1.075,7.683,23.249,23.249,0,0,1-3.038,6.041,29.067,29.067,0,0,1-6.873,6.923,23.525,23.525,0,0,1-3.029,1.917" transform="translate(-71.701 -31.507)" fill="#263238"/>
              <path id="Path_183" data-name="Path 183" d="M190.53,146.7a1.613,1.613,0,0,1-.558-.072,3.58,3.58,0,0,1-.638-.173,5.878,5.878,0,0,1-.818-.317,8.981,8.981,0,0,1-1.943-1.2,9.923,9.923,0,0,1-3.155-4.562,8.964,8.964,0,0,1-.439-2.243,5.927,5.927,0,0,1-.008-.876,3.513,3.513,0,0,1,.064-.658,1.621,1.621,0,0,1,.128-.548c.074.009-.061.8.078,2.059a9.829,9.829,0,0,0,.5,2.154,10.345,10.345,0,0,0,3.049,4.41,9.85,9.85,0,0,0,1.839,1.229c1.128.575,1.917.728,1.9.8" transform="translate(-51.871 -38.571)" fill="#263238"/>
              <path id="Path_184" data-name="Path 184" d="M155.175,148.468a4.856,4.856,0,0,1,.4,1.74,10.293,10.293,0,0,1-2.767,7.965,4.838,4.838,0,0,1-1.391,1.118c-.042-.052.492-.474,1.2-1.295a11.335,11.335,0,0,0,2.7-7.771c-.043-1.08-.2-1.743-.135-1.758" transform="translate(-42.927 -42.092)" fill="#263238"/>
              <path id="Path_185" data-name="Path 185" d="M121.812,151.65a.833.833,0,0,1-.287.04,3.484,3.484,0,0,1-.831-.043,5.108,5.108,0,0,1-2.671-1.448,7.651,7.651,0,0,1-2.1-3.991,19.25,19.25,0,0,1-.049-5.522,33.314,33.314,0,0,0,.214-5.455,27.3,27.3,0,0,0-.61-4.411,30.076,30.076,0,0,0-.807-2.9,7.892,7.892,0,0,1-.331-1.059c.011-.005.059.082.14.252s.2.423.327.757a22.883,22.883,0,0,1,.927,2.889,25.234,25.234,0,0,1,.7,4.452,31.617,31.617,0,0,1-.185,5.51,19.66,19.66,0,0,0,.015,5.423,7.533,7.533,0,0,0,1.947,3.87,5.18,5.18,0,0,0,2.512,1.491c.688.148,1.088.1,1.089.145" transform="translate(-32.416 -35.966)" fill="#263238"/>
              <path id="Path_186" data-name="Path 186" d="M97.77,167.329a7.878,7.878,0,0,0,1.093-2.736,8.966,8.966,0,0,0-1.838-6.681,18.862,18.862,0,0,0-5.553-4.491l-1.912-1.082a3.365,3.365,0,0,1-.686-.431,3.412,3.412,0,0,1,.752.3c.473.217,1.151.543,1.974.981a17.61,17.61,0,0,1,5.721,4.493,8.929,8.929,0,0,1,1.8,6.956,5.687,5.687,0,0,1-.831,2.064,2.508,2.508,0,0,1-.521.625" transform="translate(-25.197 -43.067)" fill="#263238"/>
              <path id="Path_187" data-name="Path 187" d="M78.074,178.281a2.883,2.883,0,0,1-.54.027l-1.553.006c-.672-.045-1.5-.112-2.449-.22a29.417,29.417,0,0,1-10.982-3.951,30.169,30.169,0,0,1-7.824-6.784,27.964,27.964,0,0,1-4.9-9.125,16.148,16.148,0,0,1-.722-4.49,10.475,10.475,0,0,1,.181-2.066,13.052,13.052,0,0,1,.534-1.831,17.446,17.446,0,0,1,2.771-4.988,7.222,7.222,0,0,1,1.107-1.1,2.629,2.629,0,0,1,.461-.287,3.246,3.246,0,0,1-.414.345,8.4,8.4,0,0,0-1.042,1.128,18.255,18.255,0,0,0-2.635,4.986,13.062,13.062,0,0,0-.5,1.8,10.278,10.278,0,0,0-.154,2.007,15.988,15.988,0,0,0,.742,4.393,28.031,28.031,0,0,0,4.857,8.99,30.326,30.326,0,0,0,7.712,6.725,29.942,29.942,0,0,0,7.68,3.34,31.063,31.063,0,0,0,3.155.7c.942.126,1.759.214,2.426.282l1.545.064a2.981,2.981,0,0,1,.54.047" transform="translate(-13.923 -40.678)" fill="#263238"/>
              <path id="Path_188" data-name="Path 188" d="M57.411,120.468a1.47,1.47,0,0,1-.383-.024l-1.086-.125a32.6,32.6,0,0,0-4-.231,16.922,16.922,0,0,0-5.8,1,10.81,10.81,0,0,0-5.538,4.366,7.939,7.939,0,0,0-.729,6.863,7.717,7.717,0,0,0,4.059,4.013,14.5,14.5,0,0,0,3.823,1.1c.936.138,1.462.164,1.46.2a1.469,1.469,0,0,1-.383.015c-.251,0-.62-.022-1.1-.068a13.5,13.5,0,0,1-3.913-1.007,9.039,9.039,0,0,1-2.379-1.5,7.183,7.183,0,0,1-1.889-2.627,8.228,8.228,0,0,1,.727-7.182,11.034,11.034,0,0,1,5.738-4.5,16.686,16.686,0,0,1,5.915-.947,27.261,27.261,0,0,1,4.021.351c.47.074.833.143,1.079.194a1.487,1.487,0,0,1,.37.1" transform="translate(-11.069 -33.972)" fill="#263238"/>
              <path id="Path_189" data-name="Path 189" d="M125.588,80.9a.864.864,0,0,1-.173-.12l-.485-.383c-.426-.336-1.052-.835-1.887-1.438a22.751,22.751,0,0,0-7.774-3.77,25.994,25.994,0,0,0-5.937-.749,23.78,23.78,0,0,0-6.8.843,24.125,24.125,0,0,0-6.857,3.181,22.215,22.215,0,0,0-5.686,5.768c-.346.508-.668,1.027-.957,1.516l-.057.1-.11,0a22.08,22.08,0,0,0-14.042,4.728,20.95,20.95,0,0,0-4.452,4.793,22.387,22.387,0,0,0-3.7,13.247c.009.488.05.919.089,1.293s.067.69.11.943c.033.238.059.428.08.579a.8.8,0,0,1,.014.2,16.082,16.082,0,0,1-.434-3.007,21.876,21.876,0,0,1,1.081-8.221,22.4,22.4,0,0,1,2.506-5.2,21.117,21.117,0,0,1,4.5-4.891,22.321,22.321,0,0,1,14.262-4.835l-.166.092c.292-.5.62-1.024.971-1.54a22.466,22.466,0,0,1,5.786-5.858,24.291,24.291,0,0,1,6.972-3.211,23.874,23.874,0,0,1,6.9-.82,25.978,25.978,0,0,1,6,.8,22.316,22.316,0,0,1,7.794,3.909c.825.623,1.437,1.142,1.848,1.5l.461.411a.872.872,0,0,1,.149.15" transform="translate(-18.851 -21.016)" fill="#263238"/>
              <path id="Path_190" data-name="Path 190" d="M85.343,104.615a1.026,1.026,0,0,1,.322.019,7.172,7.172,0,0,1,.909.163,10.435,10.435,0,0,1,3.12,1.342,10.869,10.869,0,0,1,3.494,3.623,10.769,10.769,0,0,1-.729,11.765,10.869,10.869,0,0,1-3.916,3.164,10.414,10.414,0,0,1-3.261.947,7.342,7.342,0,0,1-.922.049,1.041,1.041,0,0,1-.322-.022c0-.038.441-.042,1.224-.172a11.243,11.243,0,0,0,3.165-1.04,10.879,10.879,0,0,0,3.758-3.135,10.577,10.577,0,0,0,.705-11.386,10.892,10.892,0,0,0-3.342-3.575,11.235,11.235,0,0,0-3.013-1.422c-.76-.225-1.2-.284-1.193-.322" transform="translate(-23.826 -29.658)" fill="#263238"/>
              <path id="Path_191" data-name="Path 191" d="M113.675,95.77a3.587,3.587,0,0,1,.307.868,10.991,10.991,0,0,1,.365,2.488,12.1,12.1,0,0,1-9.3,12.306,11.037,11.037,0,0,1-2.493.329,3.611,3.611,0,0,1-.919-.058,20.009,20.009,0,0,0,3.345-.526,12.224,12.224,0,0,0,9.1-12.046,19.9,19.9,0,0,0-.408-3.362" transform="translate(-28.814 -27.152)" fill="#263238"/>
              <path id="Path_192" data-name="Path 192" d="M134.838,132.544a8.94,8.94,0,0,1,.076-1.161,20.093,20.093,0,0,0-.016-3.152,18.826,18.826,0,0,0-11.549-15.991,20.3,20.3,0,0,0-2.987-1.007,8.862,8.862,0,0,1-1.126-.292.911.911,0,0,1,.3.016c.2.029.488.053.855.135a16.8,16.8,0,0,1,3.056.9,18.488,18.488,0,0,1,11.712,16.216,16.893,16.893,0,0,1-.1,3.186c-.039.375-.108.659-.142.855a.921.921,0,0,1-.079.292" transform="translate(-33.805 -31.451)" fill="#263238"/>
              <path id="Path_193" data-name="Path 193" d="M130.293,87.074a3.812,3.812,0,0,1,.843.463,10.656,10.656,0,0,1,1.995,1.7,11.935,11.935,0,0,1,2.143,3.256,11.365,11.365,0,0,1,.057,9.337,11.949,11.949,0,0,1-2.1,3.282,10.663,10.663,0,0,1-1.975,1.729,3.84,3.84,0,0,1-.836.473,17.678,17.678,0,0,0,2.612-2.376,11.686,11.686,0,0,0-.095-15.524,17.693,17.693,0,0,0-2.641-2.344" transform="translate(-36.939 -24.686)" fill="#263238"/>
              <path id="Path_194" data-name="Path 194" d="M142.675,87.839a13.272,13.272,0,0,1-4.385,7.406c-.084-.08,1.283-1.474,2.488-3.528,1.221-2.043,1.786-3.913,1.9-3.878" transform="translate(-39.206 -24.903)" fill="#263238"/>
              <path id="Path_195" data-name="Path 195" d="M162.843,52.775a4.058,4.058,0,0,1,.58.264l.691.349.9.553a18.274,18.274,0,0,1,4.852,4.641,19.2,19.2,0,0,1,3.593,9.252,18.238,18.238,0,0,1-2.931,11.721,19.028,19.028,0,0,1-9.707,7.679l.109-.213a32.721,32.721,0,0,1,1.177,13.494,30.477,30.477,0,0,1-.715,3.818c-.108.437-.216.767-.281.992a1.705,1.705,0,0,1-.118.335,1.67,1.67,0,0,1,.063-.35c.058-.256.134-.588.229-1a35.789,35.789,0,0,0,.616-3.816,33.378,33.378,0,0,0-1.3-13.37l-.049-.159.158-.054a18.812,18.812,0,0,0,9.5-7.557,18,18,0,0,0,2.9-11.484,19.127,19.127,0,0,0-3.466-9.132,18.818,18.818,0,0,0-4.717-4.674l-.877-.577-.671-.378a4.114,4.114,0,0,1-.545-.331" transform="translate(-45.52 -14.962)" fill="#263238"/>
              <path id="Path_196" data-name="Path 196" d="M145.129,56.063a2.73,2.73,0,0,1,.658.479,8.119,8.119,0,0,1,1.45,1.683,9.261,9.261,0,0,1,1.29,3.038,8.707,8.707,0,0,1-1.81,7.659A9.25,9.25,0,0,1,144.2,71.06a8.113,8.113,0,0,1-2.05.856,2.742,2.742,0,0,1-.8.133,13.937,13.937,0,0,0,2.715-1.215,8.936,8.936,0,0,0,2.946-12.47,13.972,13.972,0,0,0-1.884-2.3" transform="translate(-40.075 -15.894)" fill="#263238"/>
              <path id="Path_197" data-name="Path 197" d="M217.43,67.153a3.431,3.431,0,0,1-.582.053c-.382.024-.945.064-1.666.147a28.933,28.933,0,0,0-5.982,1.331,23.241,23.241,0,0,0-3.869,1.7,33.334,33.334,0,0,0-4.013,2.732,29.237,29.237,0,0,0-7.433,8.181c-1.942,3.455-3.7,6.806-5.118,9.933a57.967,57.967,0,0,0-3.138,8.551,41.06,41.06,0,0,0-1.192,6.024c-.107.719-.124,1.284-.173,1.664a3.436,3.436,0,0,1-.077.581,3.465,3.465,0,0,1,0-.585c.025-.383.018-.951.1-1.675a37.4,37.4,0,0,1,1.082-6.077,55.773,55.773,0,0,1,3.079-8.623c1.405-3.152,3.158-6.511,5.108-9.979a29.177,29.177,0,0,1,7.546-8.266,32.818,32.818,0,0,1,4.075-2.731,22.927,22.927,0,0,1,3.934-1.675,27.008,27.008,0,0,1,6.051-1.225c.727-.061,1.293-.077,1.677-.078a3.44,3.44,0,0,1,.585.022" transform="translate(-52.216 -19.032)" fill="#263238"/>
              <path id="Path_198" data-name="Path 198" d="M192.934,59.049c0,.072-1,.055-2.581.337a17.318,17.318,0,0,0-2.712.725,17.294,17.294,0,0,0-5.852,3.522,17.3,17.3,0,0,0-1.911,2.056c-.987,1.262-1.443,2.158-1.507,2.124a2.576,2.576,0,0,1,.282-.647,6.221,6.221,0,0,1,.406-.722,10.445,10.445,0,0,1,.609-.914,15.312,15.312,0,0,1,1.887-2.149,16.305,16.305,0,0,1,5.972-3.594,15.355,15.355,0,0,1,2.783-.661,10.23,10.23,0,0,1,1.093-.11,6.13,6.13,0,0,1,.828-.021,2.554,2.554,0,0,1,.7.054" transform="translate(-50.57 -16.724)" fill="#263238"/>
              <path id="Path_199" data-name="Path 199" d="M207.123,119.4c0-.035.3-.051.795-.233a4.73,4.73,0,0,0,1.823-1.24,7.679,7.679,0,0,0,1.587-2.875,37.422,37.422,0,0,0,1-3.985,47.344,47.344,0,0,0,.861-7.425c.04-.958.037-1.734.047-2.271a3.628,3.628,0,0,1,.037-.836,3.6,3.6,0,0,1,.108.832c.035.537.078,1.317.072,2.281a39.457,39.457,0,0,1-.759,7.492,33.286,33.286,0,0,1-1.038,4.025,7.64,7.64,0,0,1-1.723,2.947,4.522,4.522,0,0,1-1.968,1.2,2.967,2.967,0,0,1-.619.107c-.144,0-.219,0-.22-.013" transform="translate(-58.722 -28.502)" fill="#263238"/>
              <path id="Path_200" data-name="Path 200" d="M231,135.115a12.246,12.246,0,0,0,.743-4.146,11.922,11.922,0,0,0-.961-4.444A12.872,12.872,0,0,0,227.563,122a15.409,15.409,0,0,0-4.8-2.844,19.3,19.3,0,0,0-4.459-1.08,24.422,24.422,0,0,0-3.1-.184,8.1,8.1,0,0,1-1.146-.014.92.92,0,0,1,.293-.055c.193-.019.479-.062.849-.077a19.771,19.771,0,0,1,3.137.067,18.512,18.512,0,0,1,4.549,1.02,15.324,15.324,0,0,1,4.927,2.888,12.922,12.922,0,0,1,3.284,4.671,11.779,11.779,0,0,1,.907,4.576,9.385,9.385,0,0,1-.528,3.1,6.034,6.034,0,0,1-.332.787c-.085.176-.135.266-.146.26" transform="translate(-60.687 -33.373)" fill="#263238"/>
              <path id="Path_201" data-name="Path 201" d="M214.332,87.911a2.2,2.2,0,0,1,.447-.149c.295-.092.737-.2,1.311-.324a21.781,21.781,0,0,1,4.947-.433,19.388,19.388,0,0,1,7.188,1.583,16.3,16.3,0,0,1,6.91,5.733,13.872,13.872,0,0,1,2.493,8.6,12.952,12.952,0,0,1-2.568,6.868,11.378,11.378,0,0,1-3.764,3.228,8.4,8.4,0,0,1-1.246.529,2.209,2.209,0,0,1-.451.133,2.215,2.215,0,0,1,.425-.2,10.851,10.851,0,0,0,1.2-.586,11.707,11.707,0,0,0,3.622-3.258,12.842,12.842,0,0,0,2.437-6.731,13.643,13.643,0,0,0-2.458-8.368,16.133,16.133,0,0,0-6.741-5.629,19.559,19.559,0,0,0-7.057-1.634,23.641,23.641,0,0,0-4.912.312c-1.15.195-1.775.366-1.785.33" transform="translate(-60.766 -24.665)" fill="#263238"/>
              <path id="Path_202" data-name="Path 202" d="M241.722,91.514c-.077-.016.224-1.118.283-2.935a12.479,12.479,0,0,0-.028-1.482,16.33,16.33,0,0,0-.188-1.689,17.04,17.04,0,0,0-2.959-7.135,16.474,16.474,0,0,0-1.063-1.326,12.443,12.443,0,0,0-1.029-1.068c-1.327-1.241-2.32-1.806-2.277-1.873a3.241,3.241,0,0,1,.705.377,6.14,6.14,0,0,1,.779.523,10.266,10.266,0,0,1,.971.778A11.716,11.716,0,0,1,238,76.738a15.563,15.563,0,0,1,1.112,1.332,16.371,16.371,0,0,1,3.02,7.283,15.463,15.463,0,0,1,.157,1.728,11.5,11.5,0,0,1-.017,1.51,10.145,10.145,0,0,1-.135,1.237,6.148,6.148,0,0,1-.18.921,3.244,3.244,0,0,1-.231.765" transform="translate(-66.472 -20.981)" fill="#263238"/>
              <path id="Path_203" data-name="Path 203" d="M270.518,99.859c-.011.075-1.119-.145-2.92-.13a18.634,18.634,0,0,0-3.138.3,18.813,18.813,0,0,0-7.1,2.895A18.7,18.7,0,0,0,254.9,104.9c-1.3,1.249-1.937,2.18-2,2.134a3.229,3.229,0,0,1,.421-.671,6.819,6.819,0,0,1,.567-.735,11.436,11.436,0,0,1,.823-.916,16.944,16.944,0,0,1,2.449-2.073,17.9,17.9,0,0,1,7.237-2.95,16.933,16.933,0,0,1,3.2-.229,11.44,11.44,0,0,1,1.229.08,6.946,6.946,0,0,1,.92.13,3.231,3.231,0,0,1,.769.185" transform="translate(-71.7 -28.197)" fill="#263238"/>
              <path id="Path_204" data-name="Path 204" d="M288.317,185.387a1.166,1.166,0,0,1,.163.34,8.115,8.115,0,0,1,.3,1.037,13.15,13.15,0,0,1,.247,3.961,16.984,16.984,0,0,1-1.533,5.684,23.612,23.612,0,0,1-4.026,5.977,18.448,18.448,0,0,1-5.77,4.313,17.151,17.151,0,0,1-5.687,1.521,30.031,30.031,0,0,1-3.964.077c-.466-.016-.826-.016-1.07-.008a1.5,1.5,0,0,1-.375.014,1.46,1.46,0,0,1,.368-.089,9.7,9.7,0,0,1,1.078-.062,37.39,37.39,0,0,0,3.934-.194,17.416,17.416,0,0,0,5.569-1.571,18.461,18.461,0,0,0,5.64-4.254,23.912,23.912,0,0,0,3.99-5.869,17.248,17.248,0,0,0,1.581-5.563,14.114,14.114,0,0,0-.125-3.908c-.081-.457-.171-.806-.234-1.043a1.814,1.814,0,0,1-.091-.364" transform="translate(-75.586 -52.559)" fill="#263238"/>
              <g id="Group_70" data-name="Group 70" transform="translate(62.188 102.39)" opacity="0.3">
                <g id="Group_69" data-name="Group 69">
                  <g id="Group_68" data-name="Group 68" clip-path="url(#clip-path-4)">
                    <path id="Path_205" data-name="Path 205" d="M181.276,142.906a23.019,23.019,0,0,0-8.167,4.978,45.885,45.885,0,0,0-35.872,2.646,29.4,29.4,0,0,1-5.907,2.723c-2.613.694-5.37.412-8.069.262a49.553,49.553,0,0,0-18.1,1.924A28.235,28.235,0,0,0,90.5,165.862c-3.455,5.032-4.768,11.667-2.756,17.43l.681,1.006c-.532-6.233,2.167-12.41,6.767-17.491s10.944-9.556,17.732-10.492,13.312.408,20.049,1.665c13.833-7.551,29.849-10.11,45.146-6.321a7.066,7.066,0,0,1,3.156-8.753" transform="translate(-86.796 -142.906)"/>
                  </g>
                </g>
              </g>
              <g id="Group_73" data-name="Group 73" transform="translate(80.906 126.367)" opacity="0.3">
                <g id="Group_72" data-name="Group 72">
                  <g id="Group_71" data-name="Group 71" clip-path="url(#clip-path-5)">
                    <path id="Path_206" data-name="Path 206" d="M158.532,183.3a29.363,29.363,0,0,1-24.559,3.746c-11.933,6.158-15.519,3.79-21.053,1.971,2.736,3.355,7.809,5.171,12.134,5.379a15.7,15.7,0,0,0,11.753-4.576c5.966,2.172,12.546,1.451,18.852.7l15.785-1.878c5.814-.692,11.667-1.392,17.25-3.152s10.944-4.661,14.74-9.119a53.842,53.842,0,0,1-44.9,6.929" transform="translate(-112.92 -176.37)"/>
                  </g>
                </g>
              </g>
              <g id="Group_76" data-name="Group 76" transform="translate(60.809 76.184)" opacity="0.3">
                <g id="Group_75" data-name="Group 75" transform="translate(0)">
                  <g id="Group_74" data-name="Group 74" clip-path="url(#clip-path-6)">
                    <path id="Path_207" data-name="Path 207" d="M84.871,126.126c2.53.818,6.193.083,8.528-1.189a9.95,9.95,0,0,0,4.79-6.1,3.388,3.388,0,0,1,.875-1.889,3.494,3.494,0,0,1,2.17-.427,8.391,8.391,0,0,0,8.011-10.188,12.548,12.548,0,0,1-14.7,7.39c-.191,4.99-1.687,10.922-9.674,12.406" transform="translate(-84.871 -106.33)"/>
                  </g>
                </g>
              </g>
              <g id="Group_79" data-name="Group 79" transform="translate(45.727 49.082)" opacity="0.3">
                <g id="Group_78" data-name="Group 78">
                  <g id="Group_77" data-name="Group 77" clip-path="url(#clip-path-7)">
                    <path id="Path_208" data-name="Path 208" d="M125.981,77.181A21.424,21.424,0,0,0,105.815,68.7a27.392,27.392,0,0,0-19.2,12.309,30.958,30.958,0,0,0-11.576,2.314A17.95,17.95,0,0,0,66.3,91.041a19.744,19.744,0,0,0-.092,18.991c-1.164-7.217.327-13.259,4.243-17.9S82.6,83.677,88.679,83.987a16.984,16.984,0,0,1,11.439-9.942,29.281,29.281,0,0,1,16.513.019c5.239,1.671,12.713,9.581,12.721,10.749.292-2.6-.939-4.325-3.371-7.633" transform="translate(-63.821 -68.504)"/>
                  </g>
                </g>
              </g>
              <g id="Group_82" data-name="Group 82" transform="translate(131.724 47.833)" opacity="0.3">
                <g id="Group_81" data-name="Group 81" transform="translate(0)">
                  <g id="Group_80" data-name="Group 80" clip-path="url(#clip-path-8)">
                    <path id="Path_209" data-name="Path 209" d="M214.685,67c-9.62-1.435-19.473,3.853-25.072,11.807s-6.254,17.07-5.519,26.768c0,0,3.56-16.432,9.367-24.187,7.063-9.433,18.9-15.805,21.224-14.388" transform="translate(-183.847 -66.761)"/>
                  </g>
                </g>
              </g>
              <g id="Group_85" data-name="Group 85" transform="translate(153.368 74.183)" opacity="0.3">
                <g id="Group_84" data-name="Group 84" transform="translate(0)">
                  <g id="Group_83" data-name="Group 83" clip-path="url(#clip-path-9)">
                    <path id="Path_210" data-name="Path 210" d="M215.387,103.794a14.313,14.313,0,0,1,1.058,7.659c4.979-.041,9.541,3.2,12.24,7.388a16.888,16.888,0,0,0-7.118-4.259c-2.665-.8-5.073-1.209-7.511-.4.6-3.729,1.573-7.3,1.239-10.647" transform="translate(-214.055 -103.537)"/>
                  </g>
                </g>
              </g>
              <g id="Group_88" data-name="Group 88" transform="translate(203.36 107.038)" opacity="0.3">
                <g id="Group_87" data-name="Group 87" transform="translate(0)">
                  <g id="Group_86" data-name="Group 86" clip-path="url(#clip-path-10)">
                    <path id="Path_211" data-name="Path 211" d="M301.364,158.05a15.2,15.2,0,0,0-7.112-8.657c5.342,7.839,4.51,18.254-1.052,25.789,1.674,5.894.407,13.226-9.37,20.467,5.869-.979,12.234-7.361,12.989-13.263.314-2.455-.021-5.006.7-7.375.633-2.083,2.026-3.839,2.99-5.791a15.2,15.2,0,0,0,.857-11.171" transform="translate(-283.829 -149.393)"/>
                  </g>
                </g>
              </g>
              <g id="Group_91" data-name="Group 91" transform="translate(27.98 95.554)" opacity="0.3">
                <g id="Group_90" data-name="Group 90" transform="translate(0)">
                  <g id="Group_89" data-name="Group 89" clip-path="url(#clip-path-11)">
                    <path id="Path_212" data-name="Path 212" d="M39.052,133.537c.021.093.049.178.072.27.032-.148.06-.3.1-.442Z" transform="translate(-39.052 -133.365)"/>
                  </g>
                </g>
              </g>
              <g id="Group_94" data-name="Group 94" transform="translate(27.777 95.997)" opacity="0.3">
                <g id="Group_93" data-name="Group 93" transform="translate(0)">
                  <g id="Group_92" data-name="Group 92" clip-path="url(#clip-path-12)">
                    <path id="Path_213" data-name="Path 213" d="M49.008,159.174a15.586,15.586,0,0,1-2.455-4.972c-1.025-4.272,1.146-8.591,3.246-12.45-5.056.511-9.354-2.018-10.757-7.771-.843,3.924.236,8.555,3.466,10.9a22.146,22.146,0,0,0,18.248,27.027,57.737,57.737,0,0,1-11.748-12.733" transform="translate(-38.768 -133.982)"/>
                  </g>
                </g>
              </g>
              <path id="Path_214" data-name="Path 214" d="M199.033,231.592c-.586,1.04-7.928,7.22-5.527,14.821,3.124,9.889,18.068,10.227,29.827,7.939,17.275-3.362,25.46-10.744,25.46-20.628,0-7.963-49.76-2.132-49.76-2.132" transform="translate(-54.725 -65.075)" fill="#1168ed"/>
              <path id="Path_215" data-name="Path 215" d="M248.245,234.248a3.341,3.341,0,0,1-.579-.08l-1.644-.3c-.711-.145-1.586-.289-2.605-.444s-2.175-.347-3.463-.5c-2.569-.354-5.646-.624-9.066-.852-3.421-.211-7.19-.312-11.146-.326-7.918-.009-15.081.376-20.262.663l-6.136.363-1.669.088a3.425,3.425,0,0,1-.584.005,3.427,3.427,0,0,1,.578-.08l1.664-.158c1.446-.13,3.54-.3,6.13-.481,5.179-.354,12.347-.782,20.278-.772,3.964.013,7.74.125,11.169.355,3.426.247,6.509.546,9.079.934,1.288.168,2.447.365,3.462.554,1.017.174,1.891.339,2.6.507l1.632.369a3.35,3.35,0,0,1,.563.153" transform="translate(-54.177 -65.598)" fill="#263238"/>
              <g id="Group_97" data-name="Group 97" transform="translate(140.097 167.099)" opacity="0.3">
                <g id="Group_96" data-name="Group 96" transform="translate(0)">
                  <g id="Group_95" data-name="Group 95" clip-path="url(#clip-path-13)">
                    <path id="Path_216" data-name="Path 216" d="M195.533,233.226l.123-.006Z" transform="translate(-195.533 -233.22)"/>
                  </g>
                </g>
              </g>
              <g id="Group_100" data-name="Group 100" transform="translate(140.22 166.016)" opacity="0.3">
                <g id="Group_99" data-name="Group 99">
                  <g id="Group_98" data-name="Group 98" clip-path="url(#clip-path-14)">
                    <path id="Path_217" data-name="Path 217" d="M249.552,234.489c-17.473-4.315-35.869-2.534-53.848-1.7,19.013,1.756,37.171,1.785,53.848,1.7" transform="translate(-195.704 -231.709)"/>
                  </g>
                </g>
              </g>
              <g id="Group_103" data-name="Group 103" transform="translate(95.534 145.561)" opacity="0.3">
                <g id="Group_102" data-name="Group 102">
                  <g id="Group_101" data-name="Group 101" clip-path="url(#clip-path-15)">
                    <path id="Path_218" data-name="Path 218" d="M155.464,207.516c-3.026.888-8.575,2.57-11.308,3.6-.414,2.273-1.321,4.176-3.327,5.259a13.853,13.853,0,0,1-7.492,1.113c3.014.578,6.141,1.094,9.127.385s5.817-2.951,6.276-5.985a138.708,138.708,0,0,1,53.321-7.041c-15.34-3.126-31.575-1.748-46.6,2.664" transform="translate(-133.337 -203.158)"/>
                  </g>
                </g>
              </g>
              <g id="Group_106" data-name="Group 106" transform="translate(172.861 57.937)" opacity="0.3">
                <g id="Group_105" data-name="Group 105">
                  <g id="Group_104" data-name="Group 104" clip-path="url(#clip-path-16)">
                    <path id="Path_219" data-name="Path 219" d="M242.251,108.308l.143-.077a10.013,10.013,0,0,0,4.454-11.709,7.684,7.684,0,0,1-.63-2.18,7.77,7.77,0,0,1,.46-2.279,9.867,9.867,0,0,0-5.416-11.2c1,1.149,4.169,5.784,2.158,13.452,0,0,2.494,4.467,1.5,8.336" transform="translate(-241.261 -80.862)"/>
                  </g>
                </g>
              </g>
              <g id="Group_109" data-name="Group 109" transform="translate(93.214 70.199)" opacity="0.3">
                <g id="Group_108" data-name="Group 108" transform="translate(0)">
                  <g id="Group_107" data-name="Group 107" clip-path="url(#clip-path-17)">
                    <path id="Path_220" data-name="Path 220" d="M137.988,128.407c2.175-2.031,2.226-6.3,1.422-9.162a19.251,19.251,0,0,0-4.691-7.5,9.323,9.323,0,0,0,1.313-13.772c-.315,2.46-.335,5.513-1.422,7.742a9.636,9.636,0,0,1-4.511,4.69c5.629,2.811,8.275,10.817,8.063,16.034Z" transform="translate(-130.098 -97.977)"/>
                  </g>
                </g>
              </g>
              <path id="Path_221" data-name="Path 221" d="M266.343,184.51a10.664,10.664,0,0,0,.123-3.953,10.9,10.9,0,0,0-1.552-3.977,13.251,13.251,0,0,0-3.683-3.711,19.717,19.717,0,0,0-4.733-2.323,31.48,31.48,0,0,0-4.183-1.133c-1.213-.237-2.207-.378-2.892-.49a6.123,6.123,0,0,1-1.06-.207,5.944,5.944,0,0,1,1.078.062c.691.069,1.692.17,2.921.375a28.425,28.425,0,0,1,4.245,1.068,19.256,19.256,0,0,1,4.835,2.341,13.244,13.244,0,0,1,3.763,3.836,10.8,10.8,0,0,1,1.52,4.118,8.581,8.581,0,0,1-.063,2.958,5.5,5.5,0,0,1-.211.777c-.06.173-.1.262-.11.259" transform="translate(-70.414 -47.83)" fill="#263238"/>
              <g id="Group_112" data-name="Group 112" transform="translate(177.859 105.771)" opacity="0.3">
                <g id="Group_111" data-name="Group 111" transform="translate(0)">
                  <g id="Group_110" data-name="Group 110" clip-path="url(#clip-path-18)">
                    <path id="Path_222" data-name="Path 222" d="M257.265,159.645a27.358,27.358,0,0,0,1.8-12.02,50.637,50.637,0,0,1-10.833,15.3,24.943,24.943,0,0,1,15.92,6.591,11.133,11.133,0,0,0-6.891-9.876" transform="translate(-248.237 -147.624)"/>
                  </g>
                </g>
              </g>
              <path id="Path_225" data-name="Path 225" d="M129.389,281.744a2.664,2.664,0,1,1-2.664-2.664,2.664,2.664,0,0,1,2.664,2.664" transform="translate(-35.173 -79.122)" fill="#1168ed"/>
              <path id="Path_226" data-name="Path 226" d="M296.508,243.454a2.664,2.664,0,1,1-2.664-2.664,2.664,2.664,0,0,1,2.664,2.664" transform="translate(-82.553 -68.267)" fill="#1168ed"/>
              <path id="Path_227" data-name="Path 227" d="M295.15,70.4a1.76,1.76,0,1,1-1.76-1.76,1.76,1.76,0,0,1,1.76,1.76" transform="translate(-82.681 -19.462)" fill="#1168ed"/>
              <path id="Path_228" data-name="Path 228" d="M288.351,270.9a2.664,2.664,0,1,1-2.664-2.664,2.664,2.664,0,0,1,2.664,2.664" transform="translate(-80.24 -76.048)" fill="#1168ed"/>
              <path id="Path_229" data-name="Path 229" d="M148.358,283.638a4.492,4.492,0,1,1-4.492-4.492,4.493,4.493,0,0,1,4.492,4.492" transform="translate(-39.514 -79.141)" fill="#1168ed"/>
              <path id="Path_230" data-name="Path 230" d="M338.816,255.389a4.492,4.492,0,1,1-4.492-4.492,4.492,4.492,0,0,1,4.492,4.492" transform="translate(-93.511 -71.132)" fill="#1168ed"/>
              <path id="Path_231" data-name="Path 231" d="M280.433,68.3a2.968,2.968,0,1,1-2.968-2.968,2.967,2.967,0,0,1,2.968,2.968" transform="translate(-77.823 -18.522)" fill="#1168ed"/>
              <path id="Path_232" data-name="Path 232" d="M178.309,33.931a4.248,4.248,0,1,1-4.249-4.249,4.249,4.249,0,0,1,4.249,4.249" transform="translate(-48.144 -8.415)" fill="#1168ed"/>
              <path id="Path_233" data-name="Path 233" d="M7.743,172.376a3.608,3.608,0,1,1-3.608-3.608,3.607,3.607,0,0,1,3.608,3.608" transform="translate(-0.149 -47.848)" fill="#1168ed"/>
              <path id="Path_234" data-name="Path 234" d="M102.057,13.769a3.608,3.608,0,1,1-3.607-3.608,3.607,3.607,0,0,1,3.607,3.608" transform="translate(-26.889 -2.881)" fill="#1168ed"/>
              <path id="Path_235" data-name="Path 235" d="M156.342,34.2a2.449,2.449,0,1,1-2.449-2.449,2.449,2.449,0,0,1,2.449,2.449" transform="translate(-42.936 -9.002)" fill="#1168ed"/>
              <path id="Path_236" data-name="Path 236" d="M221.92,38.833a2.449,2.449,0,1,1-2.449-2.449,2.449,2.449,0,0,1,2.449,2.449" transform="translate(-61.528 -10.315)" fill="#1168ed"/>
              <path id="Path_237" data-name="Path 237" d="M90.354,28.713A2.449,2.449,0,1,1,87.9,26.264a2.449,2.449,0,0,1,2.449,2.449" transform="translate(-24.228 -7.446)" fill="#1168ed"/>
              <path id="Path_238" data-name="Path 238" d="M176.482,19.159a1.225,1.225,0,1,1-1.225-1.224,1.225,1.225,0,0,1,1.225,1.224" transform="translate(-49.34 -5.085)" fill="#1168ed"/>
              <path id="Path_239" data-name="Path 239" d="M140.926,1.224A1.224,1.224,0,1,1,139.7,0a1.224,1.224,0,0,1,1.224,1.224" transform="translate(-39.26)" fill="#1168ed"/>
              <path id="Path_240" data-name="Path 240" d="M112.867,38.1a1.225,1.225,0,1,1-1.225-1.224,1.225,1.225,0,0,1,1.225,1.224" transform="translate(-31.305 -10.456)" fill="#1168ed"/>
              <path id="Path_241" data-name="Path 241" d="M343.728,160.584a2.246,2.246,0,1,1-2.245-2.246,2.246,2.246,0,0,1,2.245,2.246" transform="translate(-96.177 -44.891)" fill="#1168ed"/>
              <path id="Path_242" data-name="Path 242" d="M331.118,174.93a2.664,2.664,0,1,1-2.664-2.664,2.664,2.664,0,0,1,2.664,2.664" transform="translate(-92.365 -48.839)" fill="#1168ed"/>
              <path id="Path_243" data-name="Path 243" d="M326.351,147.462a1.123,1.123,0,1,1,1.576.2,1.123,1.123,0,0,1-1.576-.2" transform="translate(-92.458 -41.294)" fill="#1168ed"/>
              <path id="Path_244" data-name="Path 244" d="M277.928,81.07a.9.9,0,1,1-.9-.9.9.9,0,0,1,.9.9" transform="translate(-78.285 -22.729)" fill="#1168ed"/>
              <path id="Path_245" data-name="Path 245" d="M311.539,237.47a1.363,1.363,0,1,1-1.363-1.363,1.363,1.363,0,0,1,1.363,1.363" transform="translate(-87.552 -66.939)" fill="#1168ed"/>
              <path id="Path_246" data-name="Path 246" d="M103.851,245.106a3.917,3.917,0,1,1-3.917-3.917,3.917,3.917,0,0,1,3.917,3.917" transform="translate(-27.222 -68.38)" fill="#1168ed"/>
              <path id="Path_247" data-name="Path 247" d="M94.842,260.382a1.486,1.486,0,1,1-1.485-1.485,1.485,1.485,0,0,1,1.485,1.485" transform="translate(-26.047 -73.4)" fill="#1168ed"/>
            </g>
          </g>
        </g>
      </g>
    </g>
    <g id="Group_117" data-name="Group 117" transform="translate(0 -1)">
      <text id="mental_health_assessment" data-name="mental health
assessment" transform="translate(29 838)" fill="#fff" font-size="17" font-family="Roboto-Bold, Roboto" font-weight="700"><tspan x="0" y="0">Mental Health</tspan><tspan x="0" y="20">Assessment</tspan></text>
      <text id="GAD-7_PHQ-9_WSAS_" data-name="GAD-7  |  PHQ-9  |  WSAS " transform="translate(29 885)" fill="#e8f0f7" font-size="12" font-family="Roboto-Medium, Roboto" font-weight="500"><tspan x="0" y="0" xml:space="preserve">GAD-7  |  PHQ-9  |  WSAS </tspan></text>
    </g>
  </g>
</svg>
