<svg xmlns="http://www.w3.org/2000/svg" width="76" height="76" viewBox="0 0 76 76">
  <g id="Group_151" data-name="Group 151" transform="translate(-177 -474)">
    <path id="Path_249" data-name="Path 249" d="M38,0A38,38,0,1,1,0,38,38,38,0,0,1,38,0Z" transform="translate(177 474)" fill="#e8f0f7"/>
    <path id="fi-sr-arrow-small-right" d="M17.709,6.458a1.565,1.565,0,0,0,0,2.213l5.152,5.153-16.3.011a1.565,1.565,0,1,0,0,3.13l16.3-.011-5.153,5.153a1.565,1.565,0,1,0,2.213,2.213l5.612-5.611a4.7,4.7,0,0,0,0-6.64L19.922,6.458A1.565,1.565,0,0,0,17.709,6.458Z" transform="translate(199.045 496.61)" fill="#1168ed"/>
  </g>
</svg>
