<svg xmlns="http://www.w3.org/2000/svg" width="154" height="147" viewBox="0 0 154 147">
  <g id="Group_143" data-name="Group 143" transform="translate(-49 -243)">
    <rect id="Rectangle_54" data-name="Rectangle 54" width="154" height="147" rx="32" transform="translate(49 243)" fill="#1168ed"/>
    <rect id="Rectangle_59" data-name="Rectangle 59" width="154" height="147" rx="32" transform="translate(49 243)" fill="#1168ed"/>
    <text id="Reports" transform="translate(106 362)" fill="#e8f0f7" font-size="20" font-family="Roboto-Bold, Roboto" font-weight="700"><tspan x="-35.132" y="0">Reports</tspan></text>
    <circle id="Ellipse_6" data-name="Ellipse 6" cx="21" cy="21" r="21" transform="translate(71 266)" fill="#91bdf2"/>
    <path id="fi-sr-receipt" d="M6.412,0A3.416,3.416,0,0,0,3,3.412V15.7a.682.682,0,0,0,1.067.563L5.5,15.278l1.437.982a.682.682,0,0,0,.771,0l1.433-.982,1.433.982a.682.682,0,0,0,.772,0l1.433-.981,1.433.981a.682.682,0,0,0,1.067-.562V3.412A3.416,3.416,0,0,0,11.872,0Zm4.095,9.555H6.412a.682.682,0,0,1,0-1.365h4.095a.682.682,0,1,1,0,1.365Zm2.047-3.412a.682.682,0,0,1-.682.682H6.412a.682.682,0,0,1,0-1.365h5.46A.682.682,0,0,1,12.555,6.142Z" transform="translate(82.858 278.81)" fill="#1168ed"/>
  </g>
</svg>
