<svg xmlns="http://www.w3.org/2000/svg" xmlns:xlink="http://www.w3.org/1999/xlink" width="88" height="88" viewBox="0 0 88 88">
  <defs>
    <filter id="Rectangle_31" x="0" y="0" width="88" height="88" filterUnits="userSpaceOnUse">
      <feOffset dy="3" input="SourceAlpha"/>
      <feGaussianBlur stdDeviation="3" result="blur"/>
      <feFlood flood-opacity="0.161"/>
      <feComposite operator="in" in2="blur"/>
      <feComposite in="SourceGraphic"/>
    </filter>
  </defs>
  <g id="Group_42" data-name="Group 42" transform="translate(-304 -301)">
    <g transform="matrix(1, 0, 0, 1, 304, 301)" filter="url(#Rectangle_31)">
      <rect id="Rectangle_31-2" data-name="Rectangle 31" width="70" height="70" rx="35" transform="translate(9 6)" fill="#e8f0f7"/>
    </g>
    <path id="fi-sr-share" d="M0,12a4.649,4.649,0,0,0,7.818,3.42l6.928,3.128a4.736,4.736,0,0,0-.079.785,4.681,4.681,0,1,0,.827-2.642L8.985,13.752a4.574,4.574,0,0,0,0-3.488l6.5-2.954a4.66,4.66,0,1,0-.827-2.643,4.633,4.633,0,0,0,.08.786l-6.91,3.14A4.65,4.65,0,0,0,0,12Z" transform="translate(336 330.001)" fill="#1168ed"/>
  </g>
</svg>
